<svg width="262" height="30" viewBox="0 0 262 30" fill="none" xmlns="http://www.w3.org/2000/svg">
<path d="M14.7952 0.999999H25.9952V7.32H14.8752C13.8618 7.32 12.9285 7.42667 12.0752 7.64C11.2218 7.85333 10.4752 8.25333 9.83516 8.84C9.22182 9.4 8.74182 10.1867 8.39516 11.2C8.04849 12.1867 7.87516 13.4533 7.87516 15C7.87516 16.5467 8.04849 17.8267 8.39516 18.84C8.74182 19.8267 9.22182 20.6133 9.83516 21.2C10.4752 21.76 11.2218 22.1467 12.0752 22.36C12.9285 22.5733 13.8618 22.68 14.8752 22.68H25.9952V29H14.7952C13.1952 29 11.5285 28.8267 9.79516 28.48C8.06182 28.1067 6.46182 27.4133 4.99516 26.4C3.55516 25.3867 2.36849 23.9733 1.43516 22.16C0.501823 20.32 0.0351562 17.9333 0.0351562 15C0.0351562 13.0267 0.24849 11.32 0.675156 9.88C1.10182 8.44 1.67516 7.2 2.39516 6.16C3.14182 5.12 4.00849 4.26667 4.99516 3.6C5.98182 2.93333 7.02182 2.41333 8.11516 2.04C9.20849 1.64 10.3285 1.37333 11.4752 1.24C12.6218 1.08 13.7285 0.999999 14.7952 0.999999Z" fill="white"/>
<path d="M46.117 0.999999L56.637 29H49.637L48.197 25.12H40.437L38.557 21.16L35.637 29H28.637L39.157 0.999999H46.117ZM45.877 18.84L42.637 8.64L39.357 18.84H45.877Z" fill="white"/>
<path d="M77.892 0.999999C79.1987 0.999999 80.4254 1.25333 81.572 1.76C82.7187 2.24 83.7187 2.90667 84.572 3.76C85.4254 4.61333 86.092 5.61333 86.572 6.76C87.0787 7.90667 87.332 9.13333 87.332 10.44C87.332 11.48 87.172 12.4667 86.852 13.4C86.5587 14.3333 86.132 15.1867 85.572 15.96C85.012 16.7333 84.3454 17.4133 83.572 18C82.7987 18.5867 81.9454 19.04 81.012 19.36L87.292 29H80.012L69.932 13.56H77.212C78.0654 13.56 78.7987 13.2533 79.412 12.64C80.0254 12.0267 80.332 11.2933 80.332 10.44C80.332 9.56 80.0254 8.81333 79.412 8.2C78.7987 7.58667 78.0654 7.28 77.212 7.28H67.492V29H60.492V0.999999H77.892Z" fill="white"/>
<path d="M90.2452 0.999999H115.885V7.28H106.565V29H99.5652V7.28H90.2452V0.999999Z" fill="white"/>
<path d="M133.118 0.16C134.718 0.16 136.385 0.386666 138.118 0.839998C139.878 1.26667 141.478 2.04 142.918 3.16C144.358 4.25333 145.545 5.76 146.478 7.68C147.438 9.6 147.918 12.04 147.918 15C147.918 17.96 147.438 20.4 146.478 22.32C145.545 24.2133 144.358 25.72 142.918 26.84C141.478 27.9333 139.878 28.6933 138.118 29.12C136.385 29.5733 134.718 29.8 133.118 29.8C132.052 29.8 130.932 29.7067 129.758 29.52C128.612 29.3333 127.492 29.0267 126.398 28.6C125.305 28.1467 124.265 27.56 123.278 26.84C122.292 26.0933 121.425 25.1733 120.678 24.08C119.958 22.9867 119.372 21.6933 118.918 20.2C118.492 18.7067 118.278 16.9733 118.278 15C118.278 13.0267 118.492 11.2933 118.918 9.8C119.372 8.28 119.958 6.97333 120.678 5.88C121.425 4.78667 122.292 3.88 123.278 3.16C124.265 2.41333 125.305 1.82667 126.398 1.4C127.492 0.946666 128.612 0.626666 129.758 0.439999C130.932 0.253333 132.052 0.16 133.118 0.16ZM133.118 23.48C134.132 23.48 135.065 23.3333 135.918 23.04C136.772 22.72 137.505 22.2267 138.118 21.56C138.758 20.8933 139.252 20.0267 139.598 18.96C139.945 17.8667 140.118 16.5467 140.118 15C140.118 13.4267 139.945 12.1067 139.598 11.04C139.252 9.94667 138.758 9.06667 138.118 8.4C137.505 7.73333 136.772 7.25333 135.918 6.96C135.065 6.64 134.132 6.48 133.118 6.48C132.105 6.48 131.172 6.64 130.318 6.96C129.465 7.25333 128.718 7.73333 128.078 8.4C127.465 9.06667 126.985 9.94667 126.638 11.04C126.292 12.1067 126.118 13.4267 126.118 15C126.118 16.5467 126.292 17.8667 126.638 18.96C126.985 20.0267 127.465 20.8933 128.078 21.56C128.718 22.2267 129.465 22.72 130.318 23.04C131.172 23.3333 132.105 23.48 133.118 23.48Z" fill="white"/>
<path d="M173.028 0.999999H180.028V29H173.028L160.188 12.48V29H153.188V0.999999H160.188L173.028 17.92V0.999999Z" fill="white"/>
<path d="M184.389 19.36C184.389 18.76 184.502 18.1933 184.729 17.66C184.955 17.1267 185.269 16.6667 185.669 16.28C186.069 15.88 186.535 15.5667 187.069 15.34C187.602 15.1133 188.169 15 188.769 15H198.389V18.14H188.929C188.635 18.14 188.389 18.2467 188.189 18.46C187.989 18.66 187.889 18.9067 187.889 19.2C187.889 19.4933 187.989 19.74 188.189 19.94C188.389 20.14 188.635 20.24 188.929 20.24H194.009C194.609 20.24 195.175 20.3533 195.709 20.58C196.242 20.8067 196.709 21.12 197.109 21.52C197.509 21.92 197.822 22.3867 198.049 22.92C198.275 23.4533 198.389 24.02 198.389 24.62C198.389 25.22 198.275 25.7867 198.049 26.32C197.822 26.8533 197.509 27.32 197.109 27.72C196.709 28.12 196.242 28.4333 195.709 28.66C195.175 28.8867 194.609 29 194.009 29H185.469L184.389 25.84H193.849C194.142 25.84 194.389 25.74 194.589 25.54C194.789 25.3267 194.889 25.0733 194.889 24.78C194.889 24.4867 194.789 24.24 194.589 24.04C194.389 23.84 194.142 23.74 193.849 23.74H188.769C188.169 23.74 187.602 23.6267 187.069 23.4C186.535 23.1733 186.069 22.86 185.669 22.46C185.269 22.06 184.955 21.5933 184.729 21.06C184.502 20.5267 184.389 19.96 184.389 19.36Z" fill="#D5FF3F"/>
<path d="M209.878 15C210.531 15 211.144 15.1267 211.718 15.38C212.291 15.62 212.791 15.9533 213.218 16.38C213.644 16.8067 213.978 17.3067 214.218 17.88C214.471 18.4533 214.598 19.0667 214.598 19.72C214.598 20.3733 214.471 20.9867 214.218 21.56C213.978 22.1333 213.644 22.6333 213.218 23.06C212.791 23.4867 212.291 23.8267 211.718 24.08C211.144 24.32 210.531 24.44 209.878 24.44H205.978L204.678 21.98V29H201.178V15H209.878ZM209.538 21.28C209.964 21.28 210.331 21.1267 210.638 20.82C210.944 20.5133 211.098 20.1467 211.098 19.72C211.098 19.28 210.944 18.9067 210.638 18.6C210.331 18.2933 209.964 18.14 209.538 18.14H204.678V21.28H209.538Z" fill="#D5FF3F"/>
<path d="M223.799 14.58C224.599 14.58 225.433 14.6933 226.299 14.92C227.179 15.1333 227.979 15.52 228.699 16.08C229.419 16.6267 230.013 17.38 230.479 18.34C230.959 19.3 231.199 20.52 231.199 22C231.199 23.48 230.959 24.7 230.479 25.66C230.013 26.6067 229.419 27.36 228.699 27.92C227.979 28.4667 227.179 28.8467 226.299 29.06C225.433 29.2867 224.599 29.4 223.799 29.4C223.266 29.4 222.706 29.3533 222.119 29.26C221.546 29.1667 220.986 29.0133 220.439 28.8C219.893 28.5733 219.373 28.28 218.879 27.92C218.386 27.5467 217.953 27.0867 217.579 26.54C217.219 25.9933 216.926 25.3467 216.699 24.6C216.486 23.8533 216.379 22.9867 216.379 22C216.379 21.0133 216.486 20.1467 216.699 19.4C216.926 18.64 217.219 17.9867 217.579 17.44C217.953 16.8933 218.386 16.44 218.879 16.08C219.373 15.7067 219.893 15.4133 220.439 15.2C220.986 14.9733 221.546 14.8133 222.119 14.72C222.706 14.6267 223.266 14.58 223.799 14.58ZM223.799 26.24C224.306 26.24 224.773 26.1667 225.199 26.02C225.626 25.86 225.993 25.6133 226.299 25.28C226.619 24.9467 226.866 24.5133 227.039 23.98C227.213 23.4333 227.299 22.7733 227.299 22C227.299 21.2133 227.213 20.5533 227.039 20.02C226.866 19.4733 226.619 19.0333 226.299 18.7C225.993 18.3667 225.626 18.1267 225.199 17.98C224.773 17.82 224.306 17.74 223.799 17.74C223.293 17.74 222.826 17.82 222.399 17.98C221.973 18.1267 221.599 18.3667 221.279 18.7C220.973 19.0333 220.733 19.4733 220.559 20.02C220.386 20.5533 220.299 21.2133 220.299 22C220.299 22.7733 220.386 23.4333 220.559 23.98C220.733 24.5133 220.973 24.9467 221.279 25.28C221.599 25.6133 221.973 25.86 222.399 26.02C222.826 26.1667 223.293 26.24 223.799 26.24Z" fill="#D5FF3F"/>
<path d="M242.514 15C243.168 15 243.781 15.1267 244.354 15.38C244.928 15.62 245.428 15.9533 245.854 16.38C246.281 16.8067 246.614 17.3067 246.854 17.88C247.108 18.4533 247.234 19.0667 247.234 19.72C247.234 20.24 247.154 20.7333 246.994 21.2C246.848 21.6667 246.634 22.0933 246.354 22.48C246.074 22.8667 245.741 23.2067 245.354 23.5C244.968 23.7933 244.541 24.02 244.074 24.18L247.214 29H243.574L238.534 21.28H242.174C242.601 21.28 242.968 21.1267 243.274 20.82C243.581 20.5133 243.734 20.1467 243.734 19.72C243.734 19.28 243.581 18.9067 243.274 18.6C242.968 18.2933 242.601 18.14 242.174 18.14H237.314V29H233.814V15H242.514Z" fill="#D5FF3F"/>
<path d="M248.691 15H261.511V18.14H256.851V29H253.351V18.14H248.691V15Z" fill="#D5FF3F"/>
</svg>
