<svg width="262" height="30" viewBox="0 0 262 30" fill="none" xmlns="http://www.w3.org/2000/svg">
<path d="M14.76 0.839999H25.96V7.16H14.84C13.8267 7.16 12.8933 7.26667 12.04 7.48C11.1867 7.69333 10.44 8.09333 9.8 8.68C9.18667 9.24 8.70667 10.0267 8.36 11.04C8.01333 12.0267 7.84 13.2933 7.84 14.84C7.84 16.3867 8.01333 17.6667 8.36 18.68C8.70667 19.6667 9.18667 20.4533 9.8 21.04C10.44 21.6 11.1867 21.9867 12.04 22.2C12.8933 22.4133 13.8267 22.52 14.84 22.52H25.96V28.84H14.76C13.16 28.84 11.4933 28.6667 9.76 28.32C8.02667 27.9467 6.42667 27.2533 4.96 26.24C3.52 25.2267 2.33333 23.8133 1.4 22C0.466667 20.16 0 17.7733 0 14.84C0 12.8667 0.213333 11.16 0.64 9.72C1.06667 8.28 1.64 7.04 2.36 6C3.10667 4.96 3.97333 4.10667 4.96 3.44C5.94667 2.77333 6.98667 2.25333 8.08 1.88C9.17333 1.48 10.2933 1.21333 11.44 1.08C12.5867 0.919999 13.6933 0.839999 14.76 0.839999Z" fill="#171616"/>
<path d="M46.0819 0.839999L56.6019 28.84H49.6019L48.1619 24.96H40.4019L38.5219 21L35.6019 28.84H28.6019L39.1219 0.839999H46.0819ZM45.8419 18.68L42.6019 8.48L39.3219 18.68H45.8419Z" fill="#171616"/>
<path d="M77.8569 0.839999C79.1635 0.839999 80.3902 1.09333 81.5369 1.6C82.6835 2.08 83.6835 2.74667 84.5369 3.6C85.3902 4.45333 86.0569 5.45333 86.5369 6.6C87.0435 7.74667 87.2969 8.97333 87.2969 10.28C87.2969 11.32 87.1369 12.3067 86.8169 13.24C86.5235 14.1733 86.0969 15.0267 85.5369 15.8C84.9769 16.5733 84.3102 17.2533 83.5369 17.84C82.7635 18.4267 81.9102 18.88 80.9769 19.2L87.2569 28.84H79.9769L69.8969 13.4H77.1769C78.0302 13.4 78.7635 13.0933 79.3769 12.48C79.9902 11.8667 80.2969 11.1333 80.2969 10.28C80.2969 9.4 79.9902 8.65333 79.3769 8.04C78.7635 7.42667 78.0302 7.12 77.1769 7.12H67.4569V28.84H60.4569V0.839999H77.8569Z" fill="#171616"/>
<path d="M90.21 0.839999H115.85V7.12H106.53V28.84H99.53V7.12H90.21V0.839999Z" fill="#171616"/>
<path d="M133.083 0C134.683 0 136.35 0.226666 138.083 0.679998C139.843 1.10667 141.443 1.88 142.883 3C144.323 4.09333 145.51 5.6 146.443 7.52C147.403 9.44 147.883 11.88 147.883 14.84C147.883 17.8 147.403 20.24 146.443 22.16C145.51 24.0533 144.323 25.56 142.883 26.68C141.443 27.7733 139.843 28.5333 138.083 28.96C136.35 29.4133 134.683 29.64 133.083 29.64C132.016 29.64 130.896 29.5467 129.723 29.36C128.576 29.1733 127.456 28.8667 126.363 28.44C125.27 27.9867 124.23 27.4 123.243 26.68C122.256 25.9333 121.39 25.0133 120.643 23.92C119.923 22.8267 119.336 21.5333 118.883 20.04C118.456 18.5467 118.243 16.8133 118.243 14.84C118.243 12.8667 118.456 11.1333 118.883 9.64C119.336 8.12 119.923 6.81333 120.643 5.72C121.39 4.62667 122.256 3.72 123.243 3C124.23 2.25333 125.27 1.66667 126.363 1.24C127.456 0.786666 128.576 0.466666 129.723 0.279999C130.896 0.0933329 132.016 0 133.083 0ZM133.083 23.32C134.096 23.32 135.03 23.1733 135.883 22.88C136.736 22.56 137.47 22.0667 138.083 21.4C138.723 20.7333 139.216 19.8667 139.563 18.8C139.91 17.7067 140.083 16.3867 140.083 14.84C140.083 13.2667 139.91 11.9467 139.563 10.88C139.216 9.78667 138.723 8.90667 138.083 8.24C137.47 7.57333 136.736 7.09333 135.883 6.8C135.03 6.48 134.096 6.32 133.083 6.32C132.07 6.32 131.136 6.48 130.283 6.8C129.43 7.09333 128.683 7.57333 128.043 8.24C127.43 8.90667 126.95 9.78667 126.603 10.88C126.256 11.9467 126.083 13.2667 126.083 14.84C126.083 16.3867 126.256 17.7067 126.603 18.8C126.95 19.8667 127.43 20.7333 128.043 21.4C128.683 22.0667 129.43 22.56 130.283 22.88C131.136 23.1733 132.07 23.32 133.083 23.32Z" fill="#171616"/>
<path d="M172.993 0.839999H179.993V28.84H172.993L160.153 12.32V28.84H153.153V0.839999H160.153L172.993 17.76V0.839999Z" fill="#171616"/>
<path d="M184.353 19.2C184.353 18.6 184.467 18.0333 184.693 17.5C184.92 16.9667 185.233 16.5067 185.633 16.12C186.033 15.72 186.5 15.4067 187.033 15.18C187.567 14.9533 188.133 14.84 188.733 14.84H198.353V17.98H188.893C188.6 17.98 188.353 18.0867 188.153 18.3C187.953 18.5 187.853 18.7467 187.853 19.04C187.853 19.3333 187.953 19.58 188.153 19.78C188.353 19.98 188.6 20.08 188.893 20.08H193.973C194.573 20.08 195.14 20.1933 195.673 20.42C196.207 20.6467 196.673 20.96 197.073 21.36C197.473 21.76 197.787 22.2267 198.013 22.76C198.24 23.2933 198.353 23.86 198.353 24.46C198.353 25.06 198.24 25.6267 198.013 26.16C197.787 26.6933 197.473 27.16 197.073 27.56C196.673 27.96 196.207 28.2733 195.673 28.5C195.14 28.7267 194.573 28.84 193.973 28.84H185.433L184.353 25.68H193.813C194.107 25.68 194.353 25.58 194.553 25.38C194.753 25.1667 194.853 24.9133 194.853 24.62C194.853 24.3267 194.753 24.08 194.553 23.88C194.353 23.68 194.107 23.58 193.813 23.58H188.733C188.133 23.58 187.567 23.4667 187.033 23.24C186.5 23.0133 186.033 22.7 185.633 22.3C185.233 21.9 184.92 21.4333 184.693 20.9C184.467 20.3667 184.353 19.8 184.353 19.2Z" fill="#B0E100"/>
<path d="M209.842 14.84C210.496 14.84 211.109 14.9667 211.682 15.22C212.256 15.46 212.756 15.7933 213.182 16.22C213.609 16.6467 213.942 17.1467 214.182 17.72C214.436 18.2933 214.562 18.9067 214.562 19.56C214.562 20.2133 214.436 20.8267 214.182 21.4C213.942 21.9733 213.609 22.4733 213.182 22.9C212.756 23.3267 212.256 23.6667 211.682 23.92C211.109 24.16 210.496 24.28 209.842 24.28H205.943L204.643 21.82V28.84H201.143V14.84H209.842ZM209.503 21.12C209.929 21.12 210.296 20.9667 210.602 20.66C210.909 20.3533 211.062 19.9867 211.062 19.56C211.062 19.12 210.909 18.7467 210.602 18.44C210.296 18.1333 209.929 17.98 209.503 17.98H204.643V21.12H209.503Z" fill="#B0E100"/>
<path d="M223.764 14.42C224.564 14.42 225.398 14.5333 226.264 14.76C227.144 14.9733 227.944 15.36 228.664 15.92C229.384 16.4667 229.978 17.22 230.444 18.18C230.924 19.14 231.164 20.36 231.164 21.84C231.164 23.32 230.924 24.54 230.444 25.5C229.978 26.4467 229.384 27.2 228.664 27.76C227.944 28.3067 227.144 28.6867 226.264 28.9C225.398 29.1267 224.564 29.24 223.764 29.24C223.231 29.24 222.671 29.1933 222.084 29.1C221.511 29.0067 220.951 28.8533 220.404 28.64C219.858 28.4133 219.338 28.12 218.844 27.76C218.351 27.3867 217.918 26.9267 217.544 26.38C217.184 25.8333 216.891 25.1867 216.664 24.44C216.451 23.6933 216.344 22.8267 216.344 21.84C216.344 20.8533 216.451 19.9867 216.664 19.24C216.891 18.48 217.184 17.8267 217.544 17.28C217.918 16.7333 218.351 16.28 218.844 15.92C219.338 15.5467 219.858 15.2533 220.404 15.04C220.951 14.8133 221.511 14.6533 222.084 14.56C222.671 14.4667 223.231 14.42 223.764 14.42ZM223.764 26.08C224.271 26.08 224.738 26.0067 225.164 25.86C225.591 25.7 225.958 25.4533 226.264 25.12C226.584 24.7867 226.831 24.3533 227.004 23.82C227.178 23.2733 227.264 22.6133 227.264 21.84C227.264 21.0533 227.178 20.3933 227.004 19.86C226.831 19.3133 226.584 18.8733 226.264 18.54C225.958 18.2067 225.591 17.9667 225.164 17.82C224.738 17.66 224.271 17.58 223.764 17.58C223.258 17.58 222.791 17.66 222.364 17.82C221.938 17.9667 221.564 18.2067 221.244 18.54C220.938 18.8733 220.698 19.3133 220.524 19.86C220.351 20.3933 220.264 21.0533 220.264 21.84C220.264 22.6133 220.351 23.2733 220.524 23.82C220.698 24.3533 220.938 24.7867 221.244 25.12C221.564 25.4533 221.938 25.7 222.364 25.86C222.791 26.0067 223.258 26.08 223.764 26.08Z" fill="#B0E100"/>
<path d="M242.479 14.84C243.133 14.84 243.746 14.9667 244.319 15.22C244.893 15.46 245.393 15.7933 245.819 16.22C246.246 16.6467 246.579 17.1467 246.819 17.72C247.073 18.2933 247.199 18.9067 247.199 19.56C247.199 20.08 247.119 20.5733 246.959 21.04C246.813 21.5067 246.599 21.9333 246.319 22.32C246.039 22.7067 245.706 23.0467 245.319 23.34C244.933 23.6333 244.506 23.86 244.039 24.02L247.179 28.84H243.539L238.499 21.12H242.139C242.566 21.12 242.933 20.9667 243.239 20.66C243.546 20.3533 243.699 19.9867 243.699 19.56C243.699 19.12 243.546 18.7467 243.239 18.44C242.933 18.1333 242.566 17.98 242.139 17.98H237.279V28.84H233.779V14.84H242.479Z" fill="#B0E100"/>
<path d="M248.656 14.84H261.476V17.98H256.816V28.84H253.316V17.98H248.656V14.84Z" fill="#B0E100"/>
</svg>
