<svg width="751" height="750" viewBox="0 0 751 750" fill="none" xmlns="http://www.w3.org/2000/svg">
<g clip-path="url(#clip0_1_41)">
<rect x="0.809326" width="750" height="750" fill="url(#paint0_linear_1_41)"/>
<path d="M103.15 567V517.679H134.595V525.096H111.969V539.69H132.647V546.868H111.969V567H103.15ZM150.419 567.615C148.027 567.615 145.908 567.16 144.062 566.248C142.239 565.314 140.815 564.026 139.789 562.386C138.787 560.722 138.285 558.82 138.285 556.678V556.609C138.285 554.445 138.821 552.599 139.892 551.072C140.986 549.523 142.558 548.304 144.609 547.415C146.66 546.504 149.143 545.957 152.06 545.774L165.903 544.92V550.56L153.256 551.346C151.16 551.482 149.553 551.984 148.437 552.85C147.32 553.715 146.762 554.866 146.762 556.302V556.336C146.762 557.817 147.32 558.991 148.437 559.856C149.576 560.7 151.08 561.121 152.949 561.121C154.589 561.121 156.048 560.791 157.324 560.13C158.622 559.469 159.648 558.569 160.4 557.43C161.152 556.29 161.528 555.003 161.528 553.567V542.698C161.528 540.875 160.947 539.44 159.785 538.392C158.645 537.321 156.993 536.785 154.828 536.785C152.823 536.785 151.217 537.218 150.009 538.084C148.801 538.927 148.049 540.021 147.753 541.365L147.685 541.673H139.824L139.858 541.263C140.04 539.121 140.758 537.207 142.011 535.521C143.264 533.812 144.996 532.467 147.206 531.487C149.439 530.507 152.083 530.018 155.136 530.018C158.167 530.018 160.787 530.519 162.997 531.521C165.23 532.524 166.951 533.925 168.159 535.726C169.389 537.526 170.004 539.645 170.004 542.083V567H161.528V561.429H161.323C160.639 562.682 159.75 563.776 158.657 564.71C157.563 565.644 156.31 566.362 154.897 566.863C153.507 567.365 152.014 567.615 150.419 567.615ZM194.305 567.718C190.727 567.718 187.628 566.954 185.008 565.428C182.387 563.901 180.359 561.725 178.924 558.899C177.511 556.074 176.805 552.724 176.805 548.851V548.816C176.805 544.965 177.522 541.639 178.958 538.836C180.394 536.01 182.41 533.834 185.008 532.308C187.628 530.781 190.693 530.018 194.202 530.018C197.392 530.018 200.149 530.633 202.474 531.863C204.798 533.071 206.621 534.677 207.942 536.683C209.264 538.688 210.016 540.898 210.198 543.313V543.553H202.2L202.132 543.279C201.79 541.525 200.958 540.032 199.637 538.802C198.338 537.549 196.561 536.922 194.305 536.922C192.527 536.922 190.966 537.412 189.622 538.392C188.3 539.349 187.275 540.716 186.546 542.493C185.817 544.271 185.452 546.401 185.452 548.885V548.919C185.452 551.425 185.817 553.567 186.546 555.345C187.298 557.122 188.335 558.489 189.656 559.446C191.001 560.381 192.561 560.848 194.339 560.848C196.504 560.848 198.247 560.267 199.568 559.104C200.913 557.92 201.779 556.382 202.166 554.49L202.234 554.183H210.267L210.232 554.422C210.005 556.928 209.207 559.184 207.84 561.189C206.473 563.195 204.638 564.79 202.337 565.975C200.035 567.137 197.358 567.718 194.305 567.718ZM232.687 567.718C229.064 567.718 225.942 566.954 223.322 565.428C220.724 563.901 218.73 561.736 217.34 558.934C215.95 556.131 215.255 552.815 215.255 548.987V548.953C215.255 545.148 215.95 541.832 217.34 539.007C218.753 536.159 220.724 533.948 223.253 532.376C225.806 530.804 228.813 530.018 232.277 530.018C235.718 530.018 238.691 530.781 241.198 532.308C243.727 533.812 245.664 535.931 247.008 538.665C248.376 541.399 249.059 544.59 249.059 548.235V550.97H219.46V545.296H244.992L240.89 550.594V547.312C240.89 544.943 240.526 542.972 239.796 541.399C239.067 539.827 238.065 538.654 236.789 537.879C235.513 537.081 234.043 536.683 232.379 536.683C230.693 536.683 229.189 537.093 227.868 537.913C226.569 538.711 225.544 539.907 224.792 541.502C224.062 543.097 223.698 545.034 223.698 547.312V550.594C223.698 552.804 224.062 554.695 224.792 556.268C225.544 557.817 226.603 559.013 227.97 559.856C229.337 560.677 230.967 561.087 232.858 561.087C234.271 561.087 235.513 560.87 236.584 560.438C237.655 559.982 238.532 559.401 239.215 558.694C239.922 557.988 240.412 557.225 240.685 556.404L240.753 556.165H248.683L248.615 556.541C248.319 557.931 247.772 559.298 246.974 560.643C246.177 561.964 245.106 563.16 243.761 564.231C242.417 565.302 240.822 566.157 238.976 566.795C237.13 567.41 235.034 567.718 232.687 567.718ZM276.094 567.718C274.362 567.718 272.767 567.444 271.309 566.897C269.873 566.328 268.609 565.542 267.515 564.539C266.421 563.514 265.521 562.283 264.815 560.848H264.644V567H256.133V517.679H264.644V536.99H264.815C265.521 535.532 266.432 534.29 267.549 533.265C268.666 532.216 269.953 531.419 271.411 530.872C272.87 530.302 274.453 530.018 276.162 530.018C279.193 530.018 281.825 530.781 284.058 532.308C286.291 533.812 288.023 535.976 289.253 538.802C290.484 541.604 291.099 544.954 291.099 548.851V548.885C291.099 552.758 290.484 556.108 289.253 558.934C288.045 561.759 286.314 563.935 284.058 565.462C281.825 566.966 279.17 567.718 276.094 567.718ZM273.565 560.574C275.388 560.574 276.96 560.107 278.281 559.173C279.626 558.216 280.651 556.86 281.358 555.105C282.064 553.351 282.417 551.277 282.417 548.885V548.851C282.417 546.435 282.053 544.362 281.323 542.63C280.617 540.898 279.603 539.565 278.281 538.631C276.96 537.674 275.388 537.195 273.565 537.195C271.81 537.195 270.261 537.674 268.916 538.631C267.595 539.588 266.546 540.944 265.772 542.698C264.997 544.43 264.61 546.481 264.61 548.851V548.885C264.61 551.255 264.986 553.317 265.737 555.071C266.512 556.826 267.572 558.182 268.916 559.139C270.261 560.096 271.81 560.574 273.565 560.574ZM313.998 567.718C310.443 567.718 307.356 566.966 304.735 565.462C302.115 563.935 300.075 561.771 298.617 558.968C297.181 556.142 296.464 552.781 296.464 548.885V548.816C296.464 544.943 297.193 541.604 298.651 538.802C300.109 535.976 302.149 533.812 304.769 532.308C307.39 530.781 310.455 530.018 313.964 530.018C317.496 530.018 320.572 530.781 323.192 532.308C325.835 533.812 327.886 535.965 329.344 538.768C330.803 541.57 331.532 544.92 331.532 548.816V548.885C331.532 552.804 330.803 556.176 329.344 559.002C327.909 561.805 325.881 563.958 323.26 565.462C320.64 566.966 317.552 567.718 313.998 567.718ZM314.032 560.848C315.832 560.848 317.393 560.381 318.715 559.446C320.036 558.512 321.05 557.156 321.757 555.379C322.486 553.579 322.85 551.414 322.85 548.885V548.816C322.85 546.31 322.486 544.168 321.757 542.391C321.027 540.613 319.991 539.257 318.646 538.323C317.325 537.389 315.764 536.922 313.964 536.922C312.209 536.922 310.66 537.389 309.315 538.323C307.994 539.257 306.957 540.613 306.205 542.391C305.476 544.168 305.111 546.31 305.111 548.816V548.885C305.111 551.414 305.476 553.579 306.205 555.379C306.957 557.156 307.994 558.512 309.315 559.446C310.66 560.381 312.232 560.848 314.032 560.848ZM354.431 567.718C350.876 567.718 347.789 566.966 345.168 565.462C342.548 563.935 340.508 561.771 339.05 558.968C337.615 556.142 336.897 552.781 336.897 548.885V548.816C336.897 544.943 337.626 541.604 339.084 538.802C340.543 535.976 342.582 533.812 345.202 532.308C347.823 530.781 350.888 530.018 354.397 530.018C357.929 530.018 361.005 530.781 363.625 532.308C366.269 533.812 368.319 535.965 369.778 538.768C371.236 541.57 371.965 544.92 371.965 548.816V548.885C371.965 552.804 371.236 556.176 369.778 559.002C368.342 561.805 366.314 563.958 363.694 565.462C361.073 566.966 357.986 567.718 354.431 567.718ZM354.465 560.848C356.265 560.848 357.826 560.381 359.148 559.446C360.469 558.512 361.483 557.156 362.19 555.379C362.919 553.579 363.284 551.414 363.284 548.885V548.816C363.284 546.31 362.919 544.168 362.19 542.391C361.461 540.613 360.424 539.257 359.079 538.323C357.758 537.389 356.197 536.922 354.397 536.922C352.642 536.922 351.093 537.389 349.748 538.323C348.427 539.257 347.39 540.613 346.638 542.391C345.909 544.168 345.544 546.31 345.544 548.816V548.885C345.544 551.414 345.909 553.579 346.638 555.379C347.39 557.156 348.427 558.512 349.748 559.446C351.093 560.381 352.665 560.848 354.465 560.848ZM379.21 567V517.679H387.686V567H379.21ZM402.042 567L389.908 550.525L395.343 544.236L411.852 567H402.042ZM386.456 555.721V545.809H387.892L401.427 530.77H411.236L394.352 549.124H392.779L386.456 555.721Z" fill="white"/>
<path d="M120.864 654.508C118.005 654.508 115.372 654.078 112.966 653.219C110.575 652.375 108.489 651.125 106.708 649.469C104.942 647.812 103.567 645.773 102.583 643.352C101.614 640.914 101.13 638.125 101.13 634.984V634.961C101.13 632.055 101.598 629.406 102.536 627.016C103.473 624.625 104.802 622.562 106.52 620.828C108.255 619.094 110.302 617.758 112.661 616.82C115.036 615.867 117.645 615.391 120.489 615.391C124.114 615.391 127.341 616.117 130.169 617.57C132.997 619.023 135.223 621.094 136.848 623.781C138.473 626.453 139.286 629.625 139.286 633.297V633.32C139.286 635.914 138.942 638.086 138.255 639.836C137.583 641.586 136.661 642.906 135.489 643.797C134.317 644.688 133.005 645.133 131.552 645.133C130.083 645.133 128.864 644.727 127.895 643.914C126.942 643.086 126.27 642.086 125.88 640.914L125.809 640.703H125.598C125.052 642.125 124.2 643.188 123.044 643.891C121.903 644.578 120.583 644.922 119.083 644.922C117.458 644.922 116.028 644.508 114.794 643.68C113.575 642.852 112.622 641.695 111.934 640.211C111.262 638.727 110.927 636.992 110.927 635.008V634.984C110.927 633.062 111.27 631.375 111.958 629.922C112.661 628.469 113.622 627.336 114.841 626.523C116.075 625.695 117.489 625.281 119.083 625.281C120.333 625.281 121.481 625.586 122.528 626.195C123.575 626.789 124.317 627.586 124.755 628.586H124.942V625.727H128.481V637.141C128.481 638.75 128.77 639.953 129.348 640.75C129.927 641.547 130.677 641.945 131.598 641.945C132.427 641.945 133.145 641.625 133.755 640.984C134.38 640.344 134.864 639.391 135.208 638.125C135.567 636.844 135.747 635.25 135.747 633.344V633.32C135.747 630.289 135.091 627.672 133.778 625.469C132.481 623.266 130.661 621.57 128.317 620.383C125.989 619.18 123.278 618.578 120.184 618.578C117.934 618.578 115.864 618.977 113.973 619.773C112.083 620.57 110.442 621.703 109.052 623.172C107.661 624.625 106.583 626.359 105.817 628.375C105.052 630.375 104.669 632.578 104.669 634.984V635.008C104.669 638.508 105.38 641.477 106.802 643.914C108.223 646.336 110.153 648.172 112.591 649.422C115.044 650.672 117.817 651.297 120.911 651.297C121.958 651.297 122.989 651.25 124.005 651.156C125.02 651.062 125.942 650.93 126.77 650.758C127.614 650.586 128.286 650.391 128.786 650.172V653.359C127.755 653.719 126.552 654 125.177 654.203C123.817 654.406 122.38 654.508 120.864 654.508ZM119.622 641.617C121.231 641.617 122.512 641.023 123.466 639.836C124.419 638.648 124.895 637.055 124.895 635.055V635.031C124.895 633.031 124.419 631.445 123.466 630.273C122.512 629.102 121.247 628.516 119.669 628.516C118.622 628.516 117.723 628.773 116.973 629.289C116.239 629.805 115.669 630.547 115.262 631.516C114.872 632.484 114.677 633.648 114.677 635.008V635.031C114.677 636.406 114.872 637.586 115.262 638.57C115.669 639.539 116.239 640.289 116.973 640.82C117.723 641.352 118.606 641.617 119.622 641.617ZM152.622 649.469C150.544 649.469 148.723 648.953 147.161 647.922C145.614 646.875 144.411 645.406 143.552 643.516C142.692 641.609 142.262 639.375 142.262 636.812V636.789C142.262 634.227 142.692 632 143.552 630.109C144.427 628.219 145.637 626.758 147.184 625.727C148.731 624.68 150.52 624.156 152.552 624.156C153.708 624.156 154.778 624.344 155.762 624.719C156.762 625.078 157.653 625.602 158.434 626.289C159.216 626.961 159.856 627.766 160.356 628.703H160.45V615.18H164.528V649H160.45V644.875H160.356C159.856 645.828 159.223 646.648 158.458 647.336C157.692 648.008 156.817 648.531 155.833 648.906C154.864 649.281 153.794 649.469 152.622 649.469ZM153.419 645.859C154.794 645.859 156.012 645.484 157.075 644.734C158.137 643.984 158.966 642.93 159.559 641.57C160.169 640.211 160.473 638.625 160.473 636.812V636.789C160.473 634.977 160.169 633.398 159.559 632.055C158.95 630.695 158.114 629.641 157.052 628.891C156.005 628.141 154.794 627.766 153.419 627.766C151.981 627.766 150.739 628.133 149.692 628.867C148.645 629.602 147.841 630.641 147.278 631.984C146.716 633.328 146.434 634.93 146.434 636.789V636.812C146.434 638.672 146.716 640.281 147.278 641.641C147.841 643 148.645 644.047 149.692 644.781C150.739 645.5 151.981 645.859 153.419 645.859ZM180.137 649.469C177.887 649.469 175.911 648.953 174.208 647.922C172.52 646.891 171.2 645.43 170.247 643.539C169.309 641.633 168.841 639.391 168.841 636.812V636.766C168.841 634.172 169.309 631.938 170.247 630.062C171.2 628.172 172.52 626.719 174.208 625.703C175.911 624.672 177.88 624.156 180.114 624.156C182.364 624.156 184.333 624.672 186.02 625.703C187.723 626.719 189.044 628.172 189.981 630.062C190.934 631.938 191.411 634.172 191.411 636.766V636.812C191.411 639.406 190.934 641.648 189.981 643.539C189.044 645.43 187.731 646.891 186.044 647.922C184.356 648.953 182.387 649.469 180.137 649.469ZM180.161 645.859C181.598 645.859 182.841 645.508 183.887 644.805C184.95 644.086 185.77 643.055 186.348 641.711C186.942 640.352 187.239 638.719 187.239 636.812V636.766C187.239 634.859 186.942 633.234 186.348 631.891C185.77 630.547 184.942 629.523 183.864 628.82C182.802 628.117 181.552 627.766 180.114 627.766C178.708 627.766 177.466 628.125 176.387 628.844C175.325 629.547 174.497 630.57 173.903 631.914C173.309 633.242 173.012 634.859 173.012 636.766V636.812C173.012 638.719 173.309 640.352 173.903 641.711C174.497 643.055 175.325 644.086 176.387 644.805C177.466 645.508 178.723 645.859 180.161 645.859ZM202.661 649.469C201.052 649.469 199.637 649.164 198.419 648.555C197.2 647.945 196.247 647.086 195.559 645.977C194.887 644.867 194.552 643.578 194.552 642.109V642.062C194.552 640.672 194.895 639.469 195.583 638.453C196.286 637.438 197.294 636.633 198.606 636.039C199.934 635.445 201.528 635.094 203.387 634.984L212.411 634.469V637.633L203.856 638.148C202.231 638.242 200.966 638.633 200.059 639.32C199.169 640.008 198.723 640.922 198.723 642.062V642.109C198.723 643.281 199.161 644.211 200.036 644.898C200.927 645.586 202.106 645.93 203.575 645.93C204.856 645.93 206.005 645.664 207.02 645.133C208.052 644.586 208.864 643.844 209.458 642.906C210.067 641.969 210.372 640.914 210.372 639.742V632.547C210.372 631.062 209.903 629.898 208.966 629.055C208.044 628.195 206.731 627.766 205.028 627.766C203.466 627.766 202.2 628.109 201.231 628.797C200.278 629.469 199.684 630.352 199.45 631.445L199.403 631.656H195.466L195.489 631.398C195.614 630.055 196.067 628.836 196.848 627.742C197.645 626.648 198.739 625.781 200.13 625.141C201.52 624.484 203.169 624.156 205.075 624.156C206.997 624.156 208.653 624.484 210.044 625.141C211.45 625.797 212.536 626.727 213.302 627.93C214.067 629.117 214.45 630.523 214.45 632.148V649H210.372V645.039H210.278C209.809 645.93 209.184 646.711 208.403 647.383C207.622 648.039 206.739 648.555 205.755 648.93C204.786 649.289 203.755 649.469 202.661 649.469ZM219.63 649V624.625H223.708V628.094H223.802C224.458 626.953 225.411 626.016 226.661 625.281C227.911 624.531 229.458 624.156 231.302 624.156C233.973 624.156 236.044 624.969 237.512 626.594C238.997 628.203 239.739 630.398 239.739 633.18V649H235.661V633.906C235.661 631.922 235.192 630.406 234.255 629.359C233.333 628.297 231.934 627.766 230.059 627.766C228.778 627.766 227.661 628.055 226.708 628.633C225.755 629.195 225.012 629.992 224.481 631.023C223.966 632.055 223.708 633.266 223.708 634.656V649H219.63ZM245.153 649V615.18H249.231V628.516H249.325C249.981 627.141 250.958 626.07 252.255 625.305C253.552 624.539 255.106 624.156 256.919 624.156C258.653 624.156 260.169 624.578 261.466 625.422C262.778 626.25 263.802 627.406 264.536 628.891C265.27 630.375 265.637 632.102 265.637 634.07V649H261.559V634.773C261.559 632.57 261.028 630.852 259.966 629.617C258.903 628.383 257.419 627.766 255.512 627.766C254.262 627.766 253.161 628.062 252.208 628.656C251.27 629.25 250.536 630.07 250.005 631.117C249.489 632.164 249.231 633.383 249.231 634.773V649H245.153ZM279.137 649.469C277.356 649.469 275.833 649.102 274.567 648.367C273.317 647.633 272.356 646.594 271.684 645.25C271.028 643.891 270.7 642.289 270.7 640.445V624.625H274.778V639.719C274.778 641.703 275.239 643.227 276.161 644.289C277.098 645.336 278.505 645.859 280.38 645.859C281.348 645.859 282.216 645.695 282.981 645.367C283.762 645.039 284.434 644.578 284.997 643.984C285.559 643.375 285.989 642.648 286.286 641.805C286.583 640.945 286.731 640 286.731 638.969V624.625H290.809V649H286.731V645.531H286.637C286.2 646.281 285.63 646.953 284.927 647.547C284.239 648.141 283.411 648.609 282.442 648.953C281.473 649.297 280.372 649.469 279.137 649.469ZM304.45 649.469C302.669 649.469 301.145 649.102 299.88 648.367C298.63 647.633 297.669 646.594 296.997 645.25C296.341 643.891 296.012 642.289 296.012 640.445V624.625H300.091V639.719C300.091 641.703 300.552 643.227 301.473 644.289C302.411 645.336 303.817 645.859 305.692 645.859C306.661 645.859 307.528 645.695 308.294 645.367C309.075 645.039 309.747 644.578 310.309 643.984C310.872 643.375 311.302 642.648 311.598 641.805C311.895 640.945 312.044 640 312.044 638.969V624.625H316.122V649H312.044V645.531H311.95C311.512 646.281 310.942 646.953 310.239 647.547C309.552 648.141 308.723 648.609 307.755 648.953C306.786 649.297 305.684 649.469 304.45 649.469ZM338.434 657.203V645.039H338.341C337.856 645.93 337.231 646.703 336.466 647.359C335.7 648.016 334.817 648.523 333.817 648.883C332.833 649.242 331.755 649.422 330.583 649.422C328.536 649.422 326.731 648.906 325.169 647.875C323.622 646.828 322.411 645.359 321.536 643.469C320.677 641.562 320.247 639.336 320.247 636.789V636.766C320.247 634.219 320.684 632.008 321.559 630.133C322.45 628.258 323.677 626.805 325.239 625.773C326.802 624.727 328.614 624.203 330.677 624.203C331.833 624.203 332.895 624.398 333.864 624.789C334.833 625.164 335.692 625.695 336.442 626.383C337.208 627.055 337.841 627.844 338.341 628.75H338.434V624.625H342.512V657.203H338.434ZM331.473 645.812C332.864 645.812 334.075 645.445 335.106 644.711C336.153 643.961 336.966 642.906 337.544 641.547C338.137 640.188 338.434 638.602 338.434 636.789V636.766C338.434 634.953 338.137 633.383 337.544 632.055C336.966 630.711 336.153 629.672 335.106 628.938C334.059 628.188 332.848 627.812 331.473 627.812C330.036 627.812 328.786 628.18 327.723 628.914C326.661 629.648 325.841 630.688 325.262 632.031C324.7 633.359 324.419 634.938 324.419 636.766V636.789C324.419 638.648 324.7 640.258 325.262 641.617C325.841 642.961 326.661 644 327.723 644.734C328.786 645.453 330.036 645.812 331.473 645.812ZM356.106 649.469C354.325 649.469 352.802 649.102 351.536 648.367C350.286 647.633 349.325 646.594 348.653 645.25C347.997 643.891 347.669 642.289 347.669 640.445V624.625H351.747V639.719C351.747 641.703 352.208 643.227 353.13 644.289C354.067 645.336 355.473 645.859 357.348 645.859C358.317 645.859 359.184 645.695 359.95 645.367C360.731 645.039 361.403 644.578 361.966 643.984C362.528 643.375 362.958 642.648 363.255 641.805C363.552 640.945 363.7 640 363.7 638.969V624.625H367.778V649H363.7V645.531H363.606C363.169 646.281 362.598 646.953 361.895 647.547C361.208 648.141 360.38 648.609 359.411 648.953C358.442 649.297 357.341 649.469 356.106 649.469ZM380.223 649.469C378.614 649.469 377.2 649.164 375.981 648.555C374.762 647.945 373.809 647.086 373.122 645.977C372.45 644.867 372.114 643.578 372.114 642.109V642.062C372.114 640.672 372.458 639.469 373.145 638.453C373.848 637.438 374.856 636.633 376.169 636.039C377.497 635.445 379.091 635.094 380.95 634.984L389.973 634.469V637.633L381.419 638.148C379.794 638.242 378.528 638.633 377.622 639.32C376.731 640.008 376.286 640.922 376.286 642.062V642.109C376.286 643.281 376.723 644.211 377.598 644.898C378.489 645.586 379.669 645.93 381.137 645.93C382.419 645.93 383.567 645.664 384.583 645.133C385.614 644.586 386.427 643.844 387.02 642.906C387.63 641.969 387.934 640.914 387.934 639.742V632.547C387.934 631.062 387.466 629.898 386.528 629.055C385.606 628.195 384.294 627.766 382.591 627.766C381.028 627.766 379.762 628.109 378.794 628.797C377.841 629.469 377.247 630.352 377.012 631.445L376.966 631.656H373.028L373.052 631.398C373.177 630.055 373.63 628.836 374.411 627.742C375.208 626.648 376.302 625.781 377.692 625.141C379.083 624.484 380.731 624.156 382.637 624.156C384.559 624.156 386.216 624.484 387.606 625.141C389.012 625.797 390.098 626.727 390.864 627.93C391.63 629.117 392.012 630.523 392.012 632.148V649H387.934V645.039H387.841C387.372 645.93 386.747 646.711 385.966 647.383C385.184 648.039 384.302 648.555 383.317 648.93C382.348 649.289 381.317 649.469 380.223 649.469ZM397.192 649V624.625H401.27V628.094H401.364C402.02 626.953 402.973 626.016 404.223 625.281C405.473 624.531 407.02 624.156 408.864 624.156C411.536 624.156 413.606 624.969 415.075 626.594C416.559 628.203 417.302 630.398 417.302 633.18V649H413.223V633.906C413.223 631.922 412.755 630.406 411.817 629.359C410.895 628.297 409.497 627.766 407.622 627.766C406.341 627.766 405.223 628.055 404.27 628.633C403.317 629.195 402.575 629.992 402.044 631.023C401.528 632.055 401.27 633.266 401.27 634.656V649H397.192ZM432.817 657.672C430.817 657.672 429.067 657.383 427.567 656.805C426.083 656.242 424.88 655.469 423.958 654.484C423.052 653.516 422.466 652.43 422.2 651.227L422.153 651.016H426.255L426.348 651.227C426.739 652.102 427.489 652.789 428.598 653.289C429.723 653.805 431.114 654.062 432.77 654.062C434.911 654.062 436.567 653.508 437.739 652.398C438.911 651.305 439.497 649.812 439.497 647.922V644.805H439.403C438.919 645.711 438.294 646.492 437.528 647.148C436.762 647.805 435.88 648.32 434.88 648.695C433.895 649.055 432.817 649.234 431.645 649.234C429.598 649.234 427.794 648.719 426.231 647.688C424.684 646.641 423.473 645.18 422.598 643.305C421.739 641.414 421.309 639.203 421.309 636.672V636.648C421.309 634.117 421.747 631.922 422.622 630.062C423.512 628.188 424.739 626.734 426.302 625.703C427.864 624.672 429.677 624.156 431.739 624.156C432.895 624.156 433.958 624.352 434.927 624.742C435.895 625.133 436.755 625.672 437.505 626.359C438.27 627.047 438.903 627.844 439.403 628.75H439.497V624.625H443.575V648.32C443.575 650.211 443.137 651.852 442.262 653.242C441.387 654.648 440.145 655.734 438.536 656.5C436.927 657.281 435.02 657.672 432.817 657.672ZM432.536 645.625C433.927 645.625 435.137 645.258 436.169 644.523C437.216 643.773 438.028 642.727 438.606 641.383C439.2 640.039 439.497 638.469 439.497 636.672V636.648C439.497 634.852 439.2 633.289 438.606 631.961C438.028 630.633 437.216 629.602 436.169 628.867C435.122 628.133 433.911 627.766 432.536 627.766C431.098 627.766 429.848 628.133 428.786 628.867C427.723 629.586 426.903 630.609 426.325 631.938C425.762 633.266 425.481 634.836 425.481 636.648V636.672C425.481 638.516 425.762 640.109 426.325 641.453C426.903 642.781 427.723 643.812 428.786 644.547C429.848 645.266 431.098 645.625 432.536 645.625ZM451.356 649.328C450.606 649.328 449.973 649.07 449.458 648.555C448.942 648.039 448.684 647.406 448.684 646.656C448.684 645.906 448.942 645.273 449.458 644.758C449.973 644.242 450.606 643.984 451.356 643.984C452.106 643.984 452.739 644.242 453.255 644.758C453.77 645.273 454.028 645.906 454.028 646.656C454.028 647.406 453.77 648.039 453.255 648.555C452.739 649.07 452.106 649.328 451.356 649.328ZM466.919 649.469C464.841 649.469 463.02 648.953 461.458 647.922C459.911 646.875 458.708 645.406 457.848 643.516C456.989 641.609 456.559 639.375 456.559 636.812V636.789C456.559 634.227 456.989 632 457.848 630.109C458.723 628.219 459.934 626.758 461.481 625.727C463.028 624.68 464.817 624.156 466.848 624.156C468.005 624.156 469.075 624.344 470.059 624.719C471.059 625.078 471.95 625.602 472.731 626.289C473.512 626.961 474.153 627.766 474.653 628.703H474.747V615.18H478.825V649H474.747V644.875H474.653C474.153 645.828 473.52 646.648 472.755 647.336C471.989 648.008 471.114 648.531 470.13 648.906C469.161 649.281 468.091 649.469 466.919 649.469ZM467.716 645.859C469.091 645.859 470.309 645.484 471.372 644.734C472.434 643.984 473.262 642.93 473.856 641.57C474.466 640.211 474.77 638.625 474.77 636.812V636.789C474.77 634.977 474.466 633.398 473.856 632.055C473.247 630.695 472.411 629.641 471.348 628.891C470.302 628.141 469.091 627.766 467.716 627.766C466.278 627.766 465.036 628.133 463.989 628.867C462.942 629.602 462.137 630.641 461.575 631.984C461.012 633.328 460.731 634.93 460.731 636.789V636.812C460.731 638.672 461.012 640.281 461.575 641.641C462.137 643 462.942 644.047 463.989 644.781C465.036 645.5 466.278 645.859 467.716 645.859ZM494.364 649.469C492.036 649.469 490.028 648.953 488.341 647.922C486.669 646.891 485.38 645.438 484.473 643.562C483.583 641.672 483.137 639.453 483.137 636.906V636.883C483.137 634.367 483.591 632.156 484.497 630.25C485.403 628.328 486.677 626.836 488.317 625.773C489.958 624.695 491.887 624.156 494.106 624.156C496.325 624.156 498.231 624.672 499.825 625.703C501.434 626.719 502.669 628.148 503.528 629.992C504.387 631.836 504.817 633.977 504.817 636.414V637.914H485.177V634.727H502.802L500.739 637.68V636.109C500.739 634.219 500.45 632.656 499.872 631.422C499.309 630.188 498.528 629.273 497.528 628.68C496.528 628.07 495.38 627.766 494.083 627.766C492.786 627.766 491.622 628.086 490.591 628.727C489.559 629.352 488.747 630.289 488.153 631.539C487.559 632.773 487.262 634.297 487.262 636.109V637.68C487.262 639.398 487.552 640.867 488.13 642.086C488.723 643.305 489.559 644.242 490.637 644.898C491.716 645.539 492.989 645.859 494.458 645.859C495.489 645.859 496.411 645.703 497.223 645.391C498.036 645.078 498.716 644.648 499.262 644.102C499.809 643.555 500.2 642.93 500.434 642.227L500.505 642.016H504.512L504.466 642.25C504.262 643.25 503.872 644.188 503.294 645.062C502.731 645.938 502.005 646.711 501.114 647.383C500.223 648.039 499.208 648.555 498.067 648.93C496.927 649.289 495.692 649.469 494.364 649.469ZM514.872 649L505.895 624.625H510.184L516.911 644.664H517.005L523.755 624.625H527.997L519.044 649H514.872Z" fill="white"/>
<g filter="url(#filter0_ddi_1_41)">
<path d="M249 176.955C249 135.559 215.422 102 174 102C132.579 102 99 135.559 99 176.955C99 214.368 126.426 245.377 162.281 251L162.281 198.622L143.238 198.622L143.238 176.955L162.281 176.955L162.281 160.442C162.281 141.656 173.478 131.279 190.61 131.279C198.815 131.279 207.399 132.743 207.399 132.743L207.399 151.189L197.942 151.189C188.625 151.189 185.719 156.967 185.719 162.895L185.719 176.955L206.52 176.955L203.195 198.622L185.719 198.622L185.719 251C221.574 245.377 249 214.368 249 176.955Z" fill="white"/>
</g>
</g>
<rect x="1.30933" y="0.5" width="749" height="749" rx="53.35" stroke="black" stroke-opacity="0.08"/>
<defs>
<filter id="filter0_ddi_1_41" x="81" y="87" width="285" height="301" filterUnits="userSpaceOnUse" color-interpolation-filters="sRGB">
<feFlood flood-opacity="0" result="BackgroundImageFix"/>
<feColorMatrix in="SourceAlpha" type="matrix" values="0 0 0 0 0 0 0 0 0 0 0 0 0 0 0 0 0 0 127 0" result="hardAlpha"/>
<feOffset dx="19" dy="22"/>
<feGaussianBlur stdDeviation="18.5"/>
<feComposite in2="hardAlpha" operator="out"/>
<feColorMatrix type="matrix" values="0 0 0 0 0 0 0 0 0 0 0 0 0 0 0 0 0 0 0.45 0"/>
<feBlend mode="normal" in2="BackgroundImageFix" result="effect1_dropShadow_1_41"/>
<feColorMatrix in="SourceAlpha" type="matrix" values="0 0 0 0 0 0 0 0 0 0 0 0 0 0 0 0 0 0 127 0" result="hardAlpha"/>
<feOffset dx="53" dy="73"/>
<feGaussianBlur stdDeviation="32"/>
<feComposite in2="hardAlpha" operator="out"/>
<feColorMatrix type="matrix" values="0 0 0 0 0 0 0 0 0 0 0 0 0 0 0 0 0 0 0.3 0"/>
<feBlend mode="normal" in2="effect1_dropShadow_1_41" result="effect2_dropShadow_1_41"/>
<feBlend mode="normal" in="SourceGraphic" in2="effect2_dropShadow_1_41" result="shape"/>
<feColorMatrix in="SourceAlpha" type="matrix" values="0 0 0 0 0 0 0 0 0 0 0 0 0 0 0 0 0 0 127 0" result="hardAlpha"/>
<feOffset dx="-2" dy="-4"/>
<feGaussianBlur stdDeviation="2"/>
<feComposite in2="hardAlpha" operator="arithmetic" k2="-1" k3="1"/>
<feColorMatrix type="matrix" values="0 0 0 0 0.188235 0 0 0 0 0.419608 0 0 0 0 0.74902 0 0 0 0.25 0"/>
<feBlend mode="normal" in2="shape" result="effect3_innerShadow_1_41"/>
</filter>
<linearGradient id="paint0_linear_1_41" x1="55.2718" y1="20.7346" x2="493.784" y2="660.347" gradientUnits="userSpaceOnUse">
<stop stop-color="#3C75C6"/>
<stop offset="1" stop-color="#144589"/>
</linearGradient>
<clipPath id="clip0_1_41">
<rect x="0.809326" width="750" height="750" rx="53.85" fill="white"/>
</clipPath>
</defs>
</svg>
