<svg width="750" height="750" viewBox="0 0 750 750" fill="none" xmlns="http://www.w3.org/2000/svg">
<g clip-path="url(#clip0_60_2)">
<path d="M0 0H750V750H0V0Z" fill="url(#paint0_linear_60_2)"/>
<path d="M124.011 567.854C120.41 567.854 117.175 567.273 114.304 566.111C111.433 564.926 108.983 563.217 106.955 560.984C104.927 558.751 103.366 556.051 102.272 552.884C101.201 549.694 100.666 546.116 100.666 542.151V542.117C100.666 536.876 101.612 532.376 103.503 528.616C105.394 524.834 108.072 521.928 111.535 519.9C115.021 517.85 119.123 516.824 123.84 516.824C127.736 516.824 131.154 517.519 134.094 518.909C137.033 520.276 139.426 522.156 141.271 524.549C143.14 526.919 144.382 529.619 144.997 532.649L145.134 533.23H136.213L136.076 532.854C135.142 530.211 133.627 528.149 131.53 526.668C129.457 525.187 126.905 524.446 123.874 524.446C120.912 524.446 118.371 525.141 116.252 526.531C114.133 527.921 112.504 529.938 111.364 532.581C110.225 535.201 109.655 538.357 109.655 542.049V542.083C109.655 544.909 109.986 547.449 110.646 549.705C111.307 551.938 112.264 553.841 113.518 555.413C114.794 556.963 116.32 558.159 118.098 559.002C119.875 559.822 121.88 560.232 124.113 560.232C126.597 560.232 128.785 559.754 130.676 558.797C132.59 557.84 134.082 556.495 135.153 554.764C136.247 553.032 136.817 551.015 136.862 548.714L136.896 547.962H124.66V541.092H145.51V546.424C145.51 549.751 145.02 552.736 144.04 555.379C143.083 558.022 141.67 560.278 139.802 562.146C137.956 563.992 135.7 565.405 133.034 566.385C130.391 567.365 127.383 567.854 124.011 567.854ZM153.506 567V530.77H162.017V567H153.506ZM157.745 525.574C156.423 525.574 155.307 525.118 154.395 524.207C153.484 523.296 153.028 522.202 153.028 520.926C153.028 519.627 153.484 518.533 154.395 517.645C155.307 516.733 156.423 516.277 157.745 516.277C159.089 516.277 160.217 516.733 161.129 517.645C162.04 518.533 162.496 519.627 162.496 520.926C162.496 522.202 162.04 523.296 161.129 524.207C160.217 525.118 159.089 525.574 157.745 525.574ZM184.096 567.718C180.336 567.718 177.533 566.897 175.688 565.257C173.865 563.616 172.953 560.927 172.953 557.19V537.332H167.826V530.77H172.953V521.575H181.601V530.77H188.334V537.332H181.601V556.507C181.601 558.261 181.988 559.48 182.763 560.164C183.56 560.825 184.723 561.155 186.249 561.155C186.682 561.155 187.058 561.144 187.377 561.121C187.719 561.076 188.038 561.041 188.334 561.019V567.41C187.833 567.479 187.218 567.547 186.488 567.615C185.782 567.684 184.985 567.718 184.096 567.718ZM195.818 567V517.679H204.329V536.854H204.5C205.457 534.666 206.881 532.98 208.772 531.795C210.686 530.61 212.988 530.018 215.677 530.018C218.297 530.018 220.564 530.621 222.478 531.829C224.392 533.014 225.873 534.689 226.922 536.854C227.97 538.995 228.494 541.525 228.494 544.441V567H219.983V546.116C219.983 543.336 219.311 541.16 217.967 539.588C216.622 537.993 214.731 537.195 212.293 537.195C210.698 537.195 209.296 537.583 208.089 538.357C206.904 539.109 205.981 540.158 205.32 541.502C204.659 542.824 204.329 544.362 204.329 546.116V567H195.818ZM249.103 567.718C246.437 567.718 244.17 567.182 242.301 566.111C240.455 565.018 239.043 563.457 238.063 561.429C237.083 559.401 236.593 556.997 236.593 554.217V530.77H245.07V552.508C245.07 555.083 245.674 557.076 246.881 558.489C248.089 559.879 249.912 560.574 252.35 560.574C253.558 560.574 254.651 560.369 255.631 559.959C256.634 559.526 257.488 558.922 258.195 558.147C258.901 557.373 259.437 556.45 259.801 555.379C260.166 554.285 260.348 553.077 260.348 551.756V530.77H268.859V567H260.348V561.326H260.177C259.539 562.602 258.707 563.73 257.682 564.71C256.657 565.667 255.426 566.408 253.991 566.932C252.555 567.456 250.926 567.718 249.103 567.718ZM297.466 567.718C295.734 567.718 294.139 567.444 292.681 566.897C291.245 566.328 289.98 565.542 288.887 564.539C287.793 563.514 286.893 562.283 286.187 560.848H286.016V567H277.505V517.679H286.016V536.99H286.187C286.893 535.532 287.804 534.29 288.921 533.265C290.037 532.216 291.325 531.419 292.783 530.872C294.242 530.302 295.825 530.018 297.534 530.018C300.565 530.018 303.197 530.781 305.43 532.308C307.663 533.812 309.395 535.976 310.625 538.802C311.855 541.604 312.471 544.954 312.471 548.851V548.885C312.471 552.758 311.855 556.108 310.625 558.934C309.417 561.759 307.686 563.935 305.43 565.462C303.197 566.966 300.542 567.718 297.466 567.718ZM294.937 560.574C296.759 560.574 298.332 560.107 299.653 559.173C300.998 558.216 302.023 556.86 302.729 555.105C303.436 553.351 303.789 551.277 303.789 548.885V548.851C303.789 546.435 303.424 544.362 302.695 542.63C301.989 540.898 300.975 539.565 299.653 538.631C298.332 537.674 296.759 537.195 294.937 537.195C293.182 537.195 291.632 537.674 290.288 538.631C288.966 539.588 287.918 540.944 287.144 542.698C286.369 544.43 285.981 546.481 285.981 548.851V548.885C285.981 551.255 286.357 553.317 287.109 555.071C287.884 556.826 288.944 558.182 290.288 559.139C291.632 560.096 293.182 560.574 294.937 560.574Z" fill="white"/>
<path d="M120.055 654.508C117.195 654.508 114.562 654.078 112.156 653.219C109.766 652.375 107.68 651.125 105.898 649.469C104.133 647.812 102.758 645.773 101.773 643.352C100.805 640.914 100.32 638.125 100.32 634.984V634.961C100.32 632.055 100.789 629.406 101.727 627.016C102.664 624.625 103.992 622.562 105.711 620.828C107.445 619.094 109.492 617.758 111.852 616.82C114.227 615.867 116.836 615.391 119.68 615.391C123.305 615.391 126.531 616.117 129.359 617.57C132.188 619.023 134.414 621.094 136.039 623.781C137.664 626.453 138.477 629.625 138.477 633.297V633.32C138.477 635.914 138.133 638.086 137.445 639.836C136.773 641.586 135.852 642.906 134.68 643.797C133.508 644.688 132.195 645.133 130.742 645.133C129.273 645.133 128.055 644.727 127.086 643.914C126.133 643.086 125.461 642.086 125.07 640.914L125 640.703H124.789C124.242 642.125 123.391 643.188 122.234 643.891C121.094 644.578 119.773 644.922 118.273 644.922C116.648 644.922 115.219 644.508 113.984 643.68C112.766 642.852 111.812 641.695 111.125 640.211C110.453 638.727 110.117 636.992 110.117 635.008V634.984C110.117 633.062 110.461 631.375 111.148 629.922C111.852 628.469 112.812 627.336 114.031 626.523C115.266 625.695 116.68 625.281 118.273 625.281C119.523 625.281 120.672 625.586 121.719 626.195C122.766 626.789 123.508 627.586 123.945 628.586H124.133V625.727H127.672V637.141C127.672 638.75 127.961 639.953 128.539 640.75C129.117 641.547 129.867 641.945 130.789 641.945C131.617 641.945 132.336 641.625 132.945 640.984C133.57 640.344 134.055 639.391 134.398 638.125C134.758 636.844 134.938 635.25 134.938 633.344V633.32C134.938 630.289 134.281 627.672 132.969 625.469C131.672 623.266 129.852 621.57 127.508 620.383C125.18 619.18 122.469 618.578 119.375 618.578C117.125 618.578 115.055 618.977 113.164 619.773C111.273 620.57 109.633 621.703 108.242 623.172C106.852 624.625 105.773 626.359 105.008 628.375C104.242 630.375 103.859 632.578 103.859 634.984V635.008C103.859 638.508 104.57 641.477 105.992 643.914C107.414 646.336 109.344 648.172 111.781 649.422C114.234 650.672 117.008 651.297 120.102 651.297C121.148 651.297 122.18 651.25 123.195 651.156C124.211 651.062 125.133 650.93 125.961 650.758C126.805 650.586 127.477 650.391 127.977 650.172V653.359C126.945 653.719 125.742 654 124.367 654.203C123.008 654.406 121.57 654.508 120.055 654.508ZM118.812 641.617C120.422 641.617 121.703 641.023 122.656 639.836C123.609 638.648 124.086 637.055 124.086 635.055V635.031C124.086 633.031 123.609 631.445 122.656 630.273C121.703 629.102 120.438 628.516 118.859 628.516C117.812 628.516 116.914 628.773 116.164 629.289C115.43 629.805 114.859 630.547 114.453 631.516C114.062 632.484 113.867 633.648 113.867 635.008V635.031C113.867 636.406 114.062 637.586 114.453 638.57C114.859 639.539 115.43 640.289 116.164 640.82C116.914 641.352 117.797 641.617 118.812 641.617ZM151.812 649.469C149.734 649.469 147.914 648.953 146.352 647.922C144.805 646.875 143.602 645.406 142.742 643.516C141.883 641.609 141.453 639.375 141.453 636.812V636.789C141.453 634.227 141.883 632 142.742 630.109C143.617 628.219 144.828 626.758 146.375 625.727C147.922 624.68 149.711 624.156 151.742 624.156C152.898 624.156 153.969 624.344 154.953 624.719C155.953 625.078 156.844 625.602 157.625 626.289C158.406 626.961 159.047 627.766 159.547 628.703H159.641V615.18H163.719V649H159.641V644.875H159.547C159.047 645.828 158.414 646.648 157.648 647.336C156.883 648.008 156.008 648.531 155.023 648.906C154.055 649.281 152.984 649.469 151.812 649.469ZM152.609 645.859C153.984 645.859 155.203 645.484 156.266 644.734C157.328 643.984 158.156 642.93 158.75 641.57C159.359 640.211 159.664 638.625 159.664 636.812V636.789C159.664 634.977 159.359 633.398 158.75 632.055C158.141 630.695 157.305 629.641 156.242 628.891C155.195 628.141 153.984 627.766 152.609 627.766C151.172 627.766 149.93 628.133 148.883 628.867C147.836 629.602 147.031 630.641 146.469 631.984C145.906 633.328 145.625 634.93 145.625 636.789V636.812C145.625 638.672 145.906 640.281 146.469 641.641C147.031 643 147.836 644.047 148.883 644.781C149.93 645.5 151.172 645.859 152.609 645.859ZM179.328 649.469C177.078 649.469 175.102 648.953 173.398 647.922C171.711 646.891 170.391 645.43 169.438 643.539C168.5 641.633 168.031 639.391 168.031 636.812V636.766C168.031 634.172 168.5 631.938 169.438 630.062C170.391 628.172 171.711 626.719 173.398 625.703C175.102 624.672 177.07 624.156 179.305 624.156C181.555 624.156 183.523 624.672 185.211 625.703C186.914 626.719 188.234 628.172 189.172 630.062C190.125 631.938 190.602 634.172 190.602 636.766V636.812C190.602 639.406 190.125 641.648 189.172 643.539C188.234 645.43 186.922 646.891 185.234 647.922C183.547 648.953 181.578 649.469 179.328 649.469ZM179.352 645.859C180.789 645.859 182.031 645.508 183.078 644.805C184.141 644.086 184.961 643.055 185.539 641.711C186.133 640.352 186.43 638.719 186.43 636.812V636.766C186.43 634.859 186.133 633.234 185.539 631.891C184.961 630.547 184.133 629.523 183.055 628.82C181.992 628.117 180.742 627.766 179.305 627.766C177.898 627.766 176.656 628.125 175.578 628.844C174.516 629.547 173.688 630.57 173.094 631.914C172.5 633.242 172.203 634.859 172.203 636.766V636.812C172.203 638.719 172.5 640.352 173.094 641.711C173.688 643.055 174.516 644.086 175.578 644.805C176.656 645.508 177.914 645.859 179.352 645.859ZM201.852 649.469C200.242 649.469 198.828 649.164 197.609 648.555C196.391 647.945 195.438 647.086 194.75 645.977C194.078 644.867 193.742 643.578 193.742 642.109V642.062C193.742 640.672 194.086 639.469 194.773 638.453C195.477 637.438 196.484 636.633 197.797 636.039C199.125 635.445 200.719 635.094 202.578 634.984L211.602 634.469V637.633L203.047 638.148C201.422 638.242 200.156 638.633 199.25 639.32C198.359 640.008 197.914 640.922 197.914 642.062V642.109C197.914 643.281 198.352 644.211 199.227 644.898C200.117 645.586 201.297 645.93 202.766 645.93C204.047 645.93 205.195 645.664 206.211 645.133C207.242 644.586 208.055 643.844 208.648 642.906C209.258 641.969 209.562 640.914 209.562 639.742V632.547C209.562 631.062 209.094 629.898 208.156 629.055C207.234 628.195 205.922 627.766 204.219 627.766C202.656 627.766 201.391 628.109 200.422 628.797C199.469 629.469 198.875 630.352 198.641 631.445L198.594 631.656H194.656L194.68 631.398C194.805 630.055 195.258 628.836 196.039 627.742C196.836 626.648 197.93 625.781 199.32 625.141C200.711 624.484 202.359 624.156 204.266 624.156C206.188 624.156 207.844 624.484 209.234 625.141C210.641 625.797 211.727 626.727 212.492 627.93C213.258 629.117 213.641 630.523 213.641 632.148V649H209.562V645.039H209.469C209 645.93 208.375 646.711 207.594 647.383C206.812 648.039 205.93 648.555 204.945 648.93C203.977 649.289 202.945 649.469 201.852 649.469ZM218.82 649V624.625H222.898V628.094H222.992C223.648 626.953 224.602 626.016 225.852 625.281C227.102 624.531 228.648 624.156 230.492 624.156C233.164 624.156 235.234 624.969 236.703 626.594C238.188 628.203 238.93 630.398 238.93 633.18V649H234.852V633.906C234.852 631.922 234.383 630.406 233.445 629.359C232.523 628.297 231.125 627.766 229.25 627.766C227.969 627.766 226.852 628.055 225.898 628.633C224.945 629.195 224.203 629.992 223.672 631.023C223.156 632.055 222.898 633.266 222.898 634.656V649H218.82ZM244.344 649V615.18H248.422V628.516H248.516C249.172 627.141 250.148 626.07 251.445 625.305C252.742 624.539 254.297 624.156 256.109 624.156C257.844 624.156 259.359 624.578 260.656 625.422C261.969 626.25 262.992 627.406 263.727 628.891C264.461 630.375 264.828 632.102 264.828 634.07V649H260.75V634.773C260.75 632.57 260.219 630.852 259.156 629.617C258.094 628.383 256.609 627.766 254.703 627.766C253.453 627.766 252.352 628.062 251.398 628.656C250.461 629.25 249.727 630.07 249.195 631.117C248.68 632.164 248.422 633.383 248.422 634.773V649H244.344ZM278.328 649.469C276.547 649.469 275.023 649.102 273.758 648.367C272.508 647.633 271.547 646.594 270.875 645.25C270.219 643.891 269.891 642.289 269.891 640.445V624.625H273.969V639.719C273.969 641.703 274.43 643.227 275.352 644.289C276.289 645.336 277.695 645.859 279.57 645.859C280.539 645.859 281.406 645.695 282.172 645.367C282.953 645.039 283.625 644.578 284.188 643.984C284.75 643.375 285.18 642.648 285.477 641.805C285.773 640.945 285.922 640 285.922 638.969V624.625H290V649H285.922V645.531H285.828C285.391 646.281 284.82 646.953 284.117 647.547C283.43 648.141 282.602 648.609 281.633 648.953C280.664 649.297 279.562 649.469 278.328 649.469ZM303.641 649.469C301.859 649.469 300.336 649.102 299.07 648.367C297.82 647.633 296.859 646.594 296.188 645.25C295.531 643.891 295.203 642.289 295.203 640.445V624.625H299.281V639.719C299.281 641.703 299.742 643.227 300.664 644.289C301.602 645.336 303.008 645.859 304.883 645.859C305.852 645.859 306.719 645.695 307.484 645.367C308.266 645.039 308.938 644.578 309.5 643.984C310.062 643.375 310.492 642.648 310.789 641.805C311.086 640.945 311.234 640 311.234 638.969V624.625H315.312V649H311.234V645.531H311.141C310.703 646.281 310.133 646.953 309.43 647.547C308.742 648.141 307.914 648.609 306.945 648.953C305.977 649.297 304.875 649.469 303.641 649.469ZM337.625 657.203V645.039H337.531C337.047 645.93 336.422 646.703 335.656 647.359C334.891 648.016 334.008 648.523 333.008 648.883C332.023 649.242 330.945 649.422 329.773 649.422C327.727 649.422 325.922 648.906 324.359 647.875C322.812 646.828 321.602 645.359 320.727 643.469C319.867 641.562 319.438 639.336 319.438 636.789V636.766C319.438 634.219 319.875 632.008 320.75 630.133C321.641 628.258 322.867 626.805 324.43 625.773C325.992 624.727 327.805 624.203 329.867 624.203C331.023 624.203 332.086 624.398 333.055 624.789C334.023 625.164 334.883 625.695 335.633 626.383C336.398 627.055 337.031 627.844 337.531 628.75H337.625V624.625H341.703V657.203H337.625ZM330.664 645.812C332.055 645.812 333.266 645.445 334.297 644.711C335.344 643.961 336.156 642.906 336.734 641.547C337.328 640.188 337.625 638.602 337.625 636.789V636.766C337.625 634.953 337.328 633.383 336.734 632.055C336.156 630.711 335.344 629.672 334.297 628.938C333.25 628.188 332.039 627.812 330.664 627.812C329.227 627.812 327.977 628.18 326.914 628.914C325.852 629.648 325.031 630.688 324.453 632.031C323.891 633.359 323.609 634.938 323.609 636.766V636.789C323.609 638.648 323.891 640.258 324.453 641.617C325.031 642.961 325.852 644 326.914 644.734C327.977 645.453 329.227 645.812 330.664 645.812ZM355.297 649.469C353.516 649.469 351.992 649.102 350.727 648.367C349.477 647.633 348.516 646.594 347.844 645.25C347.188 643.891 346.859 642.289 346.859 640.445V624.625H350.938V639.719C350.938 641.703 351.398 643.227 352.32 644.289C353.258 645.336 354.664 645.859 356.539 645.859C357.508 645.859 358.375 645.695 359.141 645.367C359.922 645.039 360.594 644.578 361.156 643.984C361.719 643.375 362.148 642.648 362.445 641.805C362.742 640.945 362.891 640 362.891 638.969V624.625H366.969V649H362.891V645.531H362.797C362.359 646.281 361.789 646.953 361.086 647.547C360.398 648.141 359.57 648.609 358.602 648.953C357.633 649.297 356.531 649.469 355.297 649.469ZM379.414 649.469C377.805 649.469 376.391 649.164 375.172 648.555C373.953 647.945 373 647.086 372.312 645.977C371.641 644.867 371.305 643.578 371.305 642.109V642.062C371.305 640.672 371.648 639.469 372.336 638.453C373.039 637.438 374.047 636.633 375.359 636.039C376.688 635.445 378.281 635.094 380.141 634.984L389.164 634.469V637.633L380.609 638.148C378.984 638.242 377.719 638.633 376.812 639.32C375.922 640.008 375.477 640.922 375.477 642.062V642.109C375.477 643.281 375.914 644.211 376.789 644.898C377.68 645.586 378.859 645.93 380.328 645.93C381.609 645.93 382.758 645.664 383.773 645.133C384.805 644.586 385.617 643.844 386.211 642.906C386.82 641.969 387.125 640.914 387.125 639.742V632.547C387.125 631.062 386.656 629.898 385.719 629.055C384.797 628.195 383.484 627.766 381.781 627.766C380.219 627.766 378.953 628.109 377.984 628.797C377.031 629.469 376.438 630.352 376.203 631.445L376.156 631.656H372.219L372.242 631.398C372.367 630.055 372.82 628.836 373.602 627.742C374.398 626.648 375.492 625.781 376.883 625.141C378.273 624.484 379.922 624.156 381.828 624.156C383.75 624.156 385.406 624.484 386.797 625.141C388.203 625.797 389.289 626.727 390.055 627.93C390.82 629.117 391.203 630.523 391.203 632.148V649H387.125V645.039H387.031C386.562 645.93 385.938 646.711 385.156 647.383C384.375 648.039 383.492 648.555 382.508 648.93C381.539 649.289 380.508 649.469 379.414 649.469ZM396.383 649V624.625H400.461V628.094H400.555C401.211 626.953 402.164 626.016 403.414 625.281C404.664 624.531 406.211 624.156 408.055 624.156C410.727 624.156 412.797 624.969 414.266 626.594C415.75 628.203 416.492 630.398 416.492 633.18V649H412.414V633.906C412.414 631.922 411.945 630.406 411.008 629.359C410.086 628.297 408.688 627.766 406.812 627.766C405.531 627.766 404.414 628.055 403.461 628.633C402.508 629.195 401.766 629.992 401.234 631.023C400.719 632.055 400.461 633.266 400.461 634.656V649H396.383ZM432.008 657.672C430.008 657.672 428.258 657.383 426.758 656.805C425.273 656.242 424.07 655.469 423.148 654.484C422.242 653.516 421.656 652.43 421.391 651.227L421.344 651.016H425.445L425.539 651.227C425.93 652.102 426.68 652.789 427.789 653.289C428.914 653.805 430.305 654.062 431.961 654.062C434.102 654.062 435.758 653.508 436.93 652.398C438.102 651.305 438.688 649.812 438.688 647.922V644.805H438.594C438.109 645.711 437.484 646.492 436.719 647.148C435.953 647.805 435.07 648.32 434.07 648.695C433.086 649.055 432.008 649.234 430.836 649.234C428.789 649.234 426.984 648.719 425.422 647.688C423.875 646.641 422.664 645.18 421.789 643.305C420.93 641.414 420.5 639.203 420.5 636.672V636.648C420.5 634.117 420.938 631.922 421.812 630.062C422.703 628.188 423.93 626.734 425.492 625.703C427.055 624.672 428.867 624.156 430.93 624.156C432.086 624.156 433.148 624.352 434.117 624.742C435.086 625.133 435.945 625.672 436.695 626.359C437.461 627.047 438.094 627.844 438.594 628.75H438.688V624.625H442.766V648.32C442.766 650.211 442.328 651.852 441.453 653.242C440.578 654.648 439.336 655.734 437.727 656.5C436.117 657.281 434.211 657.672 432.008 657.672ZM431.727 645.625C433.117 645.625 434.328 645.258 435.359 644.523C436.406 643.773 437.219 642.727 437.797 641.383C438.391 640.039 438.688 638.469 438.688 636.672V636.648C438.688 634.852 438.391 633.289 437.797 631.961C437.219 630.633 436.406 629.602 435.359 628.867C434.312 628.133 433.102 627.766 431.727 627.766C430.289 627.766 429.039 628.133 427.977 628.867C426.914 629.586 426.094 630.609 425.516 631.938C424.953 633.266 424.672 634.836 424.672 636.648V636.672C424.672 638.516 424.953 640.109 425.516 641.453C426.094 642.781 426.914 643.812 427.977 644.547C429.039 645.266 430.289 645.625 431.727 645.625Z" fill="white"/>
<g filter="url(#filter0_dd_60_2)">
<path fill-rule="evenodd" clip-rule="evenodd" d="M172.777 108.53C131.427 108.53 98 142.204 98 183.863C98 217.163 119.418 245.35 149.13 255.327C152.845 256.077 154.206 253.706 154.206 251.712C154.206 249.965 154.083 243.979 154.083 237.742C133.282 242.232 128.951 228.762 128.951 228.762C125.608 220.031 120.655 217.787 120.655 217.787C113.846 213.172 121.151 213.172 121.151 213.172C128.703 213.671 132.665 220.905 132.665 220.905C139.349 232.378 150.12 229.137 154.454 227.141C155.072 222.276 157.054 218.909 159.159 217.039C142.568 215.292 125.113 208.807 125.113 179.871C125.113 171.639 128.083 164.904 132.788 159.667C132.045 157.796 129.445 150.062 133.532 139.711C133.532 139.711 139.845 137.715 154.082 147.443C160.177 145.794 166.462 144.955 172.777 144.948C179.09 144.948 185.527 145.822 191.47 147.443C205.708 137.715 212.021 139.711 212.021 139.711C216.108 150.062 213.506 157.796 212.764 159.667C217.593 164.904 220.44 171.639 220.44 179.871C220.44 208.807 202.985 215.167 186.27 217.039C188.995 219.408 191.346 223.897 191.346 231.007C191.346 241.109 191.223 249.217 191.223 251.71C191.223 253.706 192.586 256.077 196.299 255.328C226.011 245.349 247.429 217.163 247.429 183.863C247.552 142.204 214.002 108.53 172.777 108.53Z" fill="white"/>
</g>
</g>
<rect x="1.5" y="1.5" width="747" height="747" rx="52.35" stroke="black" stroke-opacity="0.08" stroke-width="3"/>
<defs>
<filter id="filter0_dd_60_2" x="79.8" y="91.8" width="285.9" height="302.9" filterUnits="userSpaceOnUse" color-interpolation-filters="sRGB">
<feFlood flood-opacity="0" result="BackgroundImageFix"/>
<feColorMatrix in="SourceAlpha" type="matrix" values="0 0 0 0 0 0 0 0 0 0 0 0 0 0 0 0 0 0 127 0" result="hardAlpha"/>
<feOffset dx="53" dy="73"/>
<feGaussianBlur stdDeviation="32.35"/>
<feComposite in2="hardAlpha" operator="out"/>
<feColorMatrix type="matrix" values="0 0 0 0 0 0 0 0 0 0 0 0 0 0 0 0 0 0 0.6 0"/>
<feBlend mode="normal" in2="BackgroundImageFix" result="effect1_dropShadow_60_2"/>
<feColorMatrix in="SourceAlpha" type="matrix" values="0 0 0 0 0 0 0 0 0 0 0 0 0 0 0 0 0 0 127 0" result="hardAlpha"/>
<feOffset dx="19" dy="22"/>
<feGaussianBlur stdDeviation="18.6"/>
<feComposite in2="hardAlpha" operator="out"/>
<feColorMatrix type="matrix" values="0 0 0 0 0 0 0 0 0 0 0 0 0 0 0 0 0 0 1 0"/>
<feBlend mode="overlay" in2="effect1_dropShadow_60_2" result="effect2_dropShadow_60_2"/>
<feBlend mode="normal" in="SourceGraphic" in2="effect2_dropShadow_60_2" result="shape"/>
</filter>
<linearGradient id="paint0_linear_60_2" x1="364.5" y1="0" x2="364.5" y2="750" gradientUnits="userSpaceOnUse">
<stop stop-color="#24292E"/>
<stop offset="0.953345" stop-color="#09090A"/>
</linearGradient>
<clipPath id="clip0_60_2">
<rect width="750" height="750" rx="53.85" fill="white"/>
</clipPath>
</defs>
</svg>
