<svg width="751" height="750" viewBox="0 0 751 750" fill="none" xmlns="http://www.w3.org/2000/svg">
<g clip-path="url(#clip0_1_41)">
<rect x="0.809326" width="750" height="750" fill="url(#paint0_linear_1_41)"/>
<g filter="url(#filter0_ddi_1_41)">
<path d="M250.719 251H219.264V202.278C219.264 190.66 219.054 175.703 202.904 175.703C186.521 175.703 184.014 188.362 184.014 201.432V250.997H152.559V150.804H182.756V164.497H183.179C186.201 159.386 190.568 155.182 195.814 152.332C201.061 149.482 206.991 148.093 212.973 148.312C244.854 148.312 250.732 169.053 250.732 196.036L250.719 251ZM117.067 137.109C113.456 137.11 109.927 136.051 106.925 134.068C103.922 132.085 101.582 129.265 100.2 125.967C98.818 122.668 98.4557 119.038 99.1594 115.535C99.8631 112.033 101.601 108.816 104.154 106.29C106.706 103.765 109.958 102.045 113.499 101.348C117.04 100.65 120.71 101.007 124.046 102.373C127.381 103.739 130.233 106.053 132.239 109.021C134.245 111.99 135.317 115.48 135.317 119.051C135.318 121.422 134.846 123.77 133.929 125.961C133.012 128.151 131.668 130.142 129.973 131.819C128.278 133.495 126.266 134.826 124.052 135.733C121.837 136.641 119.464 137.108 117.067 137.109ZM132.794 251H101.306V150.804H132.794V251Z" fill="white"/>
</g>
<path d="M103.15 567V517.679H111.969V559.583H134.322V567H103.15ZM141.464 567V530.77H149.975V567H141.464ZM145.702 525.574C144.381 525.574 143.264 525.118 142.353 524.207C141.441 523.296 140.986 522.202 140.986 520.926C140.986 519.627 141.441 518.533 142.353 517.645C143.264 516.733 144.381 516.277 145.702 516.277C147.047 516.277 148.175 516.733 149.086 517.645C149.998 518.533 150.453 519.627 150.453 520.926C150.453 522.202 149.998 523.296 149.086 524.207C148.175 525.118 147.047 525.574 145.702 525.574ZM158.621 567V530.77H167.098V536.443H167.303C168.237 534.484 169.627 532.923 171.473 531.761C173.341 530.599 175.643 530.018 178.377 530.018C182.365 530.018 185.441 531.225 187.605 533.641C189.793 536.056 190.887 539.36 190.887 543.553V567H182.376V545.262C182.376 542.687 181.772 540.704 180.564 539.314C179.357 537.902 177.545 537.195 175.13 537.195C173.512 537.195 172.099 537.571 170.892 538.323C169.684 539.052 168.75 540.078 168.089 541.399C167.428 542.698 167.098 544.225 167.098 545.979V567H158.621ZM199.499 567V517.679H207.975V567H199.499ZM222.331 567L210.197 550.525L215.631 544.236L232.14 567H222.331ZM206.745 555.721V545.809H208.18L221.715 530.77H231.525L214.64 549.124H213.068L206.745 555.721ZM251.04 567.718C247.417 567.718 244.295 566.954 241.675 565.428C239.077 563.901 237.083 561.736 235.694 558.934C234.304 556.131 233.609 552.815 233.609 548.987V548.953C233.609 545.148 234.304 541.832 235.694 539.007C237.106 536.159 239.077 533.948 241.607 532.376C244.159 530.804 247.166 530.018 250.63 530.018C254.071 530.018 257.044 530.781 259.551 532.308C262.08 533.812 264.017 535.931 265.361 538.665C266.729 541.399 267.412 544.59 267.412 548.235V550.97H237.813V545.296H263.345L259.243 550.594V547.312C259.243 544.943 258.879 542.972 258.15 541.399C257.42 539.827 256.418 538.654 255.142 537.879C253.866 537.081 252.396 536.683 250.733 536.683C249.046 536.683 247.542 537.093 246.221 537.913C244.922 538.711 243.897 539.907 243.145 541.502C242.416 543.097 242.051 545.034 242.051 547.312V550.594C242.051 552.804 242.416 554.695 243.145 556.268C243.897 557.817 244.956 559.013 246.323 559.856C247.691 560.677 249.32 561.087 251.211 561.087C252.624 561.087 253.866 560.87 254.937 560.438C256.008 559.982 256.885 559.401 257.569 558.694C258.275 557.988 258.765 557.225 259.038 556.404L259.107 556.165H267.036L266.968 556.541C266.672 557.931 266.125 559.298 265.327 560.643C264.53 561.964 263.459 563.16 262.114 564.231C260.77 565.302 259.175 566.157 257.329 566.795C255.484 567.41 253.387 567.718 251.04 567.718ZM287.714 567.718C284.66 567.718 282.006 566.966 279.75 565.462C277.517 563.935 275.785 561.759 274.554 558.934C273.347 556.108 272.743 552.758 272.743 548.885V548.851C272.743 544.954 273.358 541.604 274.589 538.802C275.819 535.976 277.551 533.812 279.784 532.308C282.017 530.781 284.649 530.018 287.679 530.018C289.411 530.018 290.995 530.302 292.43 530.872C293.889 531.419 295.176 532.216 296.293 533.265C297.409 534.29 298.309 535.532 298.993 536.99H299.198V517.679H307.675V567H299.198V560.848H298.993C298.332 562.283 297.443 563.514 296.327 564.539C295.233 565.542 293.957 566.328 292.499 566.897C291.063 567.444 289.468 567.718 287.714 567.718ZM290.277 560.574C292.032 560.574 293.581 560.096 294.926 559.139C296.27 558.182 297.318 556.826 298.07 555.071C298.822 553.317 299.198 551.255 299.198 548.885V548.851C299.198 546.481 298.811 544.43 298.036 542.698C297.284 540.944 296.236 539.588 294.891 538.631C293.57 537.674 292.032 537.195 290.277 537.195C288.454 537.195 286.871 537.674 285.526 538.631C284.205 539.565 283.179 540.898 282.45 542.63C281.744 544.362 281.39 546.435 281.39 548.851V548.885C281.39 551.277 281.744 553.351 282.45 555.105C283.179 556.86 284.205 558.216 285.526 559.173C286.871 560.107 288.454 560.574 290.277 560.574ZM317.107 567V517.679H325.925V567H317.107ZM335.152 567V530.77H343.629V536.443H343.834C344.768 534.484 346.158 532.923 348.004 531.761C349.872 530.599 352.174 530.018 354.908 530.018C358.896 530.018 361.972 531.225 364.137 533.641C366.324 536.056 367.418 539.36 367.418 543.553V567H358.907V545.262C358.907 542.687 358.303 540.704 357.096 539.314C355.888 537.902 354.076 537.195 351.661 537.195C350.043 537.195 348.63 537.571 347.423 538.323C346.215 539.052 345.281 540.078 344.62 541.399C343.959 542.698 343.629 544.225 343.629 545.979V567H335.152Z" fill="white"/>
<path d="M120.864 654.508C118.005 654.508 115.372 654.078 112.966 653.219C110.575 652.375 108.489 651.125 106.708 649.469C104.942 647.812 103.567 645.773 102.583 643.352C101.614 640.914 101.13 638.125 101.13 634.984V634.961C101.13 632.055 101.598 629.406 102.536 627.016C103.473 624.625 104.802 622.562 106.52 620.828C108.255 619.094 110.302 617.758 112.661 616.82C115.036 615.867 117.645 615.391 120.489 615.391C124.114 615.391 127.341 616.117 130.169 617.57C132.997 619.023 135.223 621.094 136.848 623.781C138.473 626.453 139.286 629.625 139.286 633.297V633.32C139.286 635.914 138.942 638.086 138.255 639.836C137.583 641.586 136.661 642.906 135.489 643.797C134.317 644.688 133.005 645.133 131.552 645.133C130.083 645.133 128.864 644.727 127.895 643.914C126.942 643.086 126.27 642.086 125.88 640.914L125.809 640.703H125.598C125.052 642.125 124.2 643.188 123.044 643.891C121.903 644.578 120.583 644.922 119.083 644.922C117.458 644.922 116.028 644.508 114.794 643.68C113.575 642.852 112.622 641.695 111.934 640.211C111.262 638.727 110.927 636.992 110.927 635.008V634.984C110.927 633.062 111.27 631.375 111.958 629.922C112.661 628.469 113.622 627.336 114.841 626.523C116.075 625.695 117.489 625.281 119.083 625.281C120.333 625.281 121.481 625.586 122.528 626.195C123.575 626.789 124.317 627.586 124.755 628.586H124.942V625.727H128.481V637.141C128.481 638.75 128.77 639.953 129.348 640.75C129.927 641.547 130.677 641.945 131.598 641.945C132.427 641.945 133.145 641.625 133.755 640.984C134.38 640.344 134.864 639.391 135.208 638.125C135.567 636.844 135.747 635.25 135.747 633.344V633.32C135.747 630.289 135.091 627.672 133.778 625.469C132.481 623.266 130.661 621.57 128.317 620.383C125.989 619.18 123.278 618.578 120.184 618.578C117.934 618.578 115.864 618.977 113.973 619.773C112.083 620.57 110.442 621.703 109.052 623.172C107.661 624.625 106.583 626.359 105.817 628.375C105.052 630.375 104.669 632.578 104.669 634.984V635.008C104.669 638.508 105.38 641.477 106.802 643.914C108.223 646.336 110.153 648.172 112.591 649.422C115.044 650.672 117.817 651.297 120.911 651.297C121.958 651.297 122.989 651.25 124.005 651.156C125.02 651.062 125.942 650.93 126.77 650.758C127.614 650.586 128.286 650.391 128.786 650.172V653.359C127.755 653.719 126.552 654 125.177 654.203C123.817 654.406 122.38 654.508 120.864 654.508ZM119.622 641.617C121.231 641.617 122.512 641.023 123.466 639.836C124.419 638.648 124.895 637.055 124.895 635.055V635.031C124.895 633.031 124.419 631.445 123.466 630.273C122.512 629.102 121.247 628.516 119.669 628.516C118.622 628.516 117.723 628.773 116.973 629.289C116.239 629.805 115.669 630.547 115.262 631.516C114.872 632.484 114.677 633.648 114.677 635.008V635.031C114.677 636.406 114.872 637.586 115.262 638.57C115.669 639.539 116.239 640.289 116.973 640.82C117.723 641.352 118.606 641.617 119.622 641.617ZM152.622 649.469C150.544 649.469 148.723 648.953 147.161 647.922C145.614 646.875 144.411 645.406 143.552 643.516C142.692 641.609 142.262 639.375 142.262 636.812V636.789C142.262 634.227 142.692 632 143.552 630.109C144.427 628.219 145.637 626.758 147.184 625.727C148.731 624.68 150.52 624.156 152.552 624.156C153.708 624.156 154.778 624.344 155.762 624.719C156.762 625.078 157.653 625.602 158.434 626.289C159.216 626.961 159.856 627.766 160.356 628.703H160.45V615.18H164.528V649H160.45V644.875H160.356C159.856 645.828 159.223 646.648 158.458 647.336C157.692 648.008 156.817 648.531 155.833 648.906C154.864 649.281 153.794 649.469 152.622 649.469ZM153.419 645.859C154.794 645.859 156.012 645.484 157.075 644.734C158.137 643.984 158.966 642.93 159.559 641.57C160.169 640.211 160.473 638.625 160.473 636.812V636.789C160.473 634.977 160.169 633.398 159.559 632.055C158.95 630.695 158.114 629.641 157.052 628.891C156.005 628.141 154.794 627.766 153.419 627.766C151.981 627.766 150.739 628.133 149.692 628.867C148.645 629.602 147.841 630.641 147.278 631.984C146.716 633.328 146.434 634.93 146.434 636.789V636.812C146.434 638.672 146.716 640.281 147.278 641.641C147.841 643 148.645 644.047 149.692 644.781C150.739 645.5 151.981 645.859 153.419 645.859ZM180.137 649.469C177.887 649.469 175.911 648.953 174.208 647.922C172.52 646.891 171.2 645.43 170.247 643.539C169.309 641.633 168.841 639.391 168.841 636.812V636.766C168.841 634.172 169.309 631.938 170.247 630.062C171.2 628.172 172.52 626.719 174.208 625.703C175.911 624.672 177.88 624.156 180.114 624.156C182.364 624.156 184.333 624.672 186.02 625.703C187.723 626.719 189.044 628.172 189.981 630.062C190.934 631.938 191.411 634.172 191.411 636.766V636.812C191.411 639.406 190.934 641.648 189.981 643.539C189.044 645.43 187.731 646.891 186.044 647.922C184.356 648.953 182.387 649.469 180.137 649.469ZM180.161 645.859C181.598 645.859 182.841 645.508 183.887 644.805C184.95 644.086 185.77 643.055 186.348 641.711C186.942 640.352 187.239 638.719 187.239 636.812V636.766C187.239 634.859 186.942 633.234 186.348 631.891C185.77 630.547 184.942 629.523 183.864 628.82C182.802 628.117 181.552 627.766 180.114 627.766C178.708 627.766 177.466 628.125 176.387 628.844C175.325 629.547 174.497 630.57 173.903 631.914C173.309 633.242 173.012 634.859 173.012 636.766V636.812C173.012 638.719 173.309 640.352 173.903 641.711C174.497 643.055 175.325 644.086 176.387 644.805C177.466 645.508 178.723 645.859 180.161 645.859ZM202.661 649.469C201.052 649.469 199.637 649.164 198.419 648.555C197.2 647.945 196.247 647.086 195.559 645.977C194.887 644.867 194.552 643.578 194.552 642.109V642.062C194.552 640.672 194.895 639.469 195.583 638.453C196.286 637.438 197.294 636.633 198.606 636.039C199.934 635.445 201.528 635.094 203.387 634.984L212.411 634.469V637.633L203.856 638.148C202.231 638.242 200.966 638.633 200.059 639.32C199.169 640.008 198.723 640.922 198.723 642.062V642.109C198.723 643.281 199.161 644.211 200.036 644.898C200.927 645.586 202.106 645.93 203.575 645.93C204.856 645.93 206.005 645.664 207.02 645.133C208.052 644.586 208.864 643.844 209.458 642.906C210.067 641.969 210.372 640.914 210.372 639.742V632.547C210.372 631.062 209.903 629.898 208.966 629.055C208.044 628.195 206.731 627.766 205.028 627.766C203.466 627.766 202.2 628.109 201.231 628.797C200.278 629.469 199.684 630.352 199.45 631.445L199.403 631.656H195.466L195.489 631.398C195.614 630.055 196.067 628.836 196.848 627.742C197.645 626.648 198.739 625.781 200.13 625.141C201.52 624.484 203.169 624.156 205.075 624.156C206.997 624.156 208.653 624.484 210.044 625.141C211.45 625.797 212.536 626.727 213.302 627.93C214.067 629.117 214.45 630.523 214.45 632.148V649H210.372V645.039H210.278C209.809 645.93 209.184 646.711 208.403 647.383C207.622 648.039 206.739 648.555 205.755 648.93C204.786 649.289 203.755 649.469 202.661 649.469ZM219.63 649V624.625H223.708V628.094H223.802C224.458 626.953 225.411 626.016 226.661 625.281C227.911 624.531 229.458 624.156 231.302 624.156C233.973 624.156 236.044 624.969 237.512 626.594C238.997 628.203 239.739 630.398 239.739 633.18V649H235.661V633.906C235.661 631.922 235.192 630.406 234.255 629.359C233.333 628.297 231.934 627.766 230.059 627.766C228.778 627.766 227.661 628.055 226.708 628.633C225.755 629.195 225.012 629.992 224.481 631.023C223.966 632.055 223.708 633.266 223.708 634.656V649H219.63ZM245.153 649V615.18H249.231V628.516H249.325C249.981 627.141 250.958 626.07 252.255 625.305C253.552 624.539 255.106 624.156 256.919 624.156C258.653 624.156 260.169 624.578 261.466 625.422C262.778 626.25 263.802 627.406 264.536 628.891C265.27 630.375 265.637 632.102 265.637 634.07V649H261.559V634.773C261.559 632.57 261.028 630.852 259.966 629.617C258.903 628.383 257.419 627.766 255.512 627.766C254.262 627.766 253.161 628.062 252.208 628.656C251.27 629.25 250.536 630.07 250.005 631.117C249.489 632.164 249.231 633.383 249.231 634.773V649H245.153ZM279.137 649.469C277.356 649.469 275.833 649.102 274.567 648.367C273.317 647.633 272.356 646.594 271.684 645.25C271.028 643.891 270.7 642.289 270.7 640.445V624.625H274.778V639.719C274.778 641.703 275.239 643.227 276.161 644.289C277.098 645.336 278.505 645.859 280.38 645.859C281.348 645.859 282.216 645.695 282.981 645.367C283.762 645.039 284.434 644.578 284.997 643.984C285.559 643.375 285.989 642.648 286.286 641.805C286.583 640.945 286.731 640 286.731 638.969V624.625H290.809V649H286.731V645.531H286.637C286.2 646.281 285.63 646.953 284.927 647.547C284.239 648.141 283.411 648.609 282.442 648.953C281.473 649.297 280.372 649.469 279.137 649.469ZM304.45 649.469C302.669 649.469 301.145 649.102 299.88 648.367C298.63 647.633 297.669 646.594 296.997 645.25C296.341 643.891 296.012 642.289 296.012 640.445V624.625H300.091V639.719C300.091 641.703 300.552 643.227 301.473 644.289C302.411 645.336 303.817 645.859 305.692 645.859C306.661 645.859 307.528 645.695 308.294 645.367C309.075 645.039 309.747 644.578 310.309 643.984C310.872 643.375 311.302 642.648 311.598 641.805C311.895 640.945 312.044 640 312.044 638.969V624.625H316.122V649H312.044V645.531H311.95C311.512 646.281 310.942 646.953 310.239 647.547C309.552 648.141 308.723 648.609 307.755 648.953C306.786 649.297 305.684 649.469 304.45 649.469ZM338.434 657.203V645.039H338.341C337.856 645.93 337.231 646.703 336.466 647.359C335.7 648.016 334.817 648.523 333.817 648.883C332.833 649.242 331.755 649.422 330.583 649.422C328.536 649.422 326.731 648.906 325.169 647.875C323.622 646.828 322.411 645.359 321.536 643.469C320.677 641.562 320.247 639.336 320.247 636.789V636.766C320.247 634.219 320.684 632.008 321.559 630.133C322.45 628.258 323.677 626.805 325.239 625.773C326.802 624.727 328.614 624.203 330.677 624.203C331.833 624.203 332.895 624.398 333.864 624.789C334.833 625.164 335.692 625.695 336.442 626.383C337.208 627.055 337.841 627.844 338.341 628.75H338.434V624.625H342.512V657.203H338.434ZM331.473 645.812C332.864 645.812 334.075 645.445 335.106 644.711C336.153 643.961 336.966 642.906 337.544 641.547C338.137 640.188 338.434 638.602 338.434 636.789V636.766C338.434 634.953 338.137 633.383 337.544 632.055C336.966 630.711 336.153 629.672 335.106 628.938C334.059 628.188 332.848 627.812 331.473 627.812C330.036 627.812 328.786 628.18 327.723 628.914C326.661 629.648 325.841 630.688 325.262 632.031C324.7 633.359 324.419 634.938 324.419 636.766V636.789C324.419 638.648 324.7 640.258 325.262 641.617C325.841 642.961 326.661 644 327.723 644.734C328.786 645.453 330.036 645.812 331.473 645.812ZM356.106 649.469C354.325 649.469 352.802 649.102 351.536 648.367C350.286 647.633 349.325 646.594 348.653 645.25C347.997 643.891 347.669 642.289 347.669 640.445V624.625H351.747V639.719C351.747 641.703 352.208 643.227 353.13 644.289C354.067 645.336 355.473 645.859 357.348 645.859C358.317 645.859 359.184 645.695 359.95 645.367C360.731 645.039 361.403 644.578 361.966 643.984C362.528 643.375 362.958 642.648 363.255 641.805C363.552 640.945 363.7 640 363.7 638.969V624.625H367.778V649H363.7V645.531H363.606C363.169 646.281 362.598 646.953 361.895 647.547C361.208 648.141 360.38 648.609 359.411 648.953C358.442 649.297 357.341 649.469 356.106 649.469ZM380.223 649.469C378.614 649.469 377.2 649.164 375.981 648.555C374.762 647.945 373.809 647.086 373.122 645.977C372.45 644.867 372.114 643.578 372.114 642.109V642.062C372.114 640.672 372.458 639.469 373.145 638.453C373.848 637.438 374.856 636.633 376.169 636.039C377.497 635.445 379.091 635.094 380.95 634.984L389.973 634.469V637.633L381.419 638.148C379.794 638.242 378.528 638.633 377.622 639.32C376.731 640.008 376.286 640.922 376.286 642.062V642.109C376.286 643.281 376.723 644.211 377.598 644.898C378.489 645.586 379.669 645.93 381.137 645.93C382.419 645.93 383.567 645.664 384.583 645.133C385.614 644.586 386.427 643.844 387.02 642.906C387.63 641.969 387.934 640.914 387.934 639.742V632.547C387.934 631.062 387.466 629.898 386.528 629.055C385.606 628.195 384.294 627.766 382.591 627.766C381.028 627.766 379.762 628.109 378.794 628.797C377.841 629.469 377.247 630.352 377.012 631.445L376.966 631.656H373.028L373.052 631.398C373.177 630.055 373.63 628.836 374.411 627.742C375.208 626.648 376.302 625.781 377.692 625.141C379.083 624.484 380.731 624.156 382.637 624.156C384.559 624.156 386.216 624.484 387.606 625.141C389.012 625.797 390.098 626.727 390.864 627.93C391.63 629.117 392.012 630.523 392.012 632.148V649H387.934V645.039H387.841C387.372 645.93 386.747 646.711 385.966 647.383C385.184 648.039 384.302 648.555 383.317 648.93C382.348 649.289 381.317 649.469 380.223 649.469ZM397.192 649V624.625H401.27V628.094H401.364C402.02 626.953 402.973 626.016 404.223 625.281C405.473 624.531 407.02 624.156 408.864 624.156C411.536 624.156 413.606 624.969 415.075 626.594C416.559 628.203 417.302 630.398 417.302 633.18V649H413.223V633.906C413.223 631.922 412.755 630.406 411.817 629.359C410.895 628.297 409.497 627.766 407.622 627.766C406.341 627.766 405.223 628.055 404.27 628.633C403.317 629.195 402.575 629.992 402.044 631.023C401.528 632.055 401.27 633.266 401.27 634.656V649H397.192ZM432.817 657.672C430.817 657.672 429.067 657.383 427.567 656.805C426.083 656.242 424.88 655.469 423.958 654.484C423.052 653.516 422.466 652.43 422.2 651.227L422.153 651.016H426.255L426.348 651.227C426.739 652.102 427.489 652.789 428.598 653.289C429.723 653.805 431.114 654.062 432.77 654.062C434.911 654.062 436.567 653.508 437.739 652.398C438.911 651.305 439.497 649.812 439.497 647.922V644.805H439.403C438.919 645.711 438.294 646.492 437.528 647.148C436.762 647.805 435.88 648.32 434.88 648.695C433.895 649.055 432.817 649.234 431.645 649.234C429.598 649.234 427.794 648.719 426.231 647.688C424.684 646.641 423.473 645.18 422.598 643.305C421.739 641.414 421.309 639.203 421.309 636.672V636.648C421.309 634.117 421.747 631.922 422.622 630.062C423.512 628.188 424.739 626.734 426.302 625.703C427.864 624.672 429.677 624.156 431.739 624.156C432.895 624.156 433.958 624.352 434.927 624.742C435.895 625.133 436.755 625.672 437.505 626.359C438.27 627.047 438.903 627.844 439.403 628.75H439.497V624.625H443.575V648.32C443.575 650.211 443.137 651.852 442.262 653.242C441.387 654.648 440.145 655.734 438.536 656.5C436.927 657.281 435.02 657.672 432.817 657.672ZM432.536 645.625C433.927 645.625 435.137 645.258 436.169 644.523C437.216 643.773 438.028 642.727 438.606 641.383C439.2 640.039 439.497 638.469 439.497 636.672V636.648C439.497 634.852 439.2 633.289 438.606 631.961C438.028 630.633 437.216 629.602 436.169 628.867C435.122 628.133 433.911 627.766 432.536 627.766C431.098 627.766 429.848 628.133 428.786 628.867C427.723 629.586 426.903 630.609 426.325 631.938C425.762 633.266 425.481 634.836 425.481 636.648V636.672C425.481 638.516 425.762 640.109 426.325 641.453C426.903 642.781 427.723 643.812 428.786 644.547C429.848 645.266 431.098 645.625 432.536 645.625Z" fill="white"/>
</g>
<rect x="1.30933" y="0.5" width="749" height="749" rx="53.35" stroke="black" stroke-opacity="0.08"/>
<defs>
<filter id="filter0_ddi_1_41" x="80.6093" y="85.8" width="287.823" height="302.9" filterUnits="userSpaceOnUse" color-interpolation-filters="sRGB">
<feFlood flood-opacity="0" result="BackgroundImageFix"/>
<feColorMatrix in="SourceAlpha" type="matrix" values="0 0 0 0 0 0 0 0 0 0 0 0 0 0 0 0 0 0 127 0" result="hardAlpha"/>
<feOffset dx="53" dy="73"/>
<feGaussianBlur stdDeviation="32.35"/>
<feComposite in2="hardAlpha" operator="out"/>
<feColorMatrix type="matrix" values="0 0 0 0 0 0 0 0 0 0 0 0 0 0 0 0 0 0 0.3 0"/>
<feBlend mode="overlay" in2="BackgroundImageFix" result="effect1_dropShadow_1_41"/>
<feColorMatrix in="SourceAlpha" type="matrix" values="0 0 0 0 0 0 0 0 0 0 0 0 0 0 0 0 0 0 127 0" result="hardAlpha"/>
<feOffset dx="19" dy="22"/>
<feGaussianBlur stdDeviation="18.6"/>
<feComposite in2="hardAlpha" operator="out"/>
<feColorMatrix type="matrix" values="0 0 0 0 0 0 0 0 0 0 0 0 0 0 0 0 0 0 0.3 0"/>
<feBlend mode="overlay" in2="effect1_dropShadow_1_41" result="effect2_dropShadow_1_41"/>
<feBlend mode="normal" in="SourceGraphic" in2="effect2_dropShadow_1_41" result="shape"/>
<feColorMatrix in="SourceAlpha" type="matrix" values="0 0 0 0 0 0 0 0 0 0 0 0 0 0 0 0 0 0 127 0" result="hardAlpha"/>
<feOffset dx="-2" dy="-4"/>
<feGaussianBlur stdDeviation="2"/>
<feComposite in2="hardAlpha" operator="arithmetic" k2="-1" k3="1"/>
<feColorMatrix type="matrix" values="0 0 0 0 0.188235 0 0 0 0 0.419608 0 0 0 0 0.74902 0 0 0 0.45 0"/>
<feBlend mode="normal" in2="shape" result="effect3_innerShadow_1_41"/>
</filter>
<linearGradient id="paint0_linear_1_41" x1="55.2718" y1="20.7346" x2="493.784" y2="660.347" gradientUnits="userSpaceOnUse">
<stop stop-color="#3C75C6"/>
<stop offset="1" stop-color="#144589"/>
</linearGradient>
<clipPath id="clip0_1_41">
<rect x="0.809326" width="750" height="750" rx="53.85" fill="white"/>
</clipPath>
</defs>
</svg>
