<svg width="750" height="750" viewBox="0 0 750 750" fill="none" xmlns="http://www.w3.org/2000/svg">
<g clip-path="url(#clip0_1_96)">
<path d="M0 0H750V750H0V0Z" fill="url(#paint0_linear_1_96)"/>
<path d="M114.406 567V525.096H99.6406V517.679H137.922V525.096H123.19V567H114.406ZM146.978 567L137.134 530.77H145.679L151.797 558.592H151.968L159.044 530.77H167.178L174.288 558.592H174.459L180.577 530.77H188.985L179.21 567H170.254L163.111 540.511H162.94L155.831 567H146.978ZM194.897 567V530.77H203.407V567H194.897ZM199.135 525.574C197.813 525.574 196.697 525.118 195.785 524.207C194.874 523.296 194.418 522.202 194.418 520.926C194.418 519.627 194.874 518.533 195.785 517.645C196.697 516.733 197.813 516.277 199.135 516.277C200.479 516.277 201.607 516.733 202.519 517.645C203.43 518.533 203.886 519.627 203.886 520.926C203.886 522.202 203.43 523.296 202.519 524.207C201.607 525.118 200.479 525.574 199.135 525.574ZM225.486 567.718C221.726 567.718 218.924 566.897 217.078 565.257C215.255 563.616 214.344 560.927 214.344 557.19V537.332H209.217V530.77H214.344V521.575H222.991V530.77H229.724V537.332H222.991V556.507C222.991 558.261 223.378 559.48 224.153 560.164C224.951 560.825 226.113 561.155 227.639 561.155C228.072 561.155 228.448 561.144 228.767 561.121C229.109 561.076 229.428 561.041 229.724 561.019V567.41C229.223 567.479 228.608 567.547 227.879 567.615C227.172 567.684 226.375 567.718 225.486 567.718ZM250.402 567.718C246.642 567.718 243.839 566.897 241.994 565.257C240.171 563.616 239.259 560.927 239.259 557.19V537.332H234.132V530.77H239.259V521.575H247.907V530.77H254.64V537.332H247.907V556.507C247.907 558.261 248.294 559.48 249.069 560.164C249.866 560.825 251.028 561.155 252.555 561.155C252.988 561.155 253.364 561.144 253.683 561.121C254.025 561.076 254.344 561.041 254.64 561.019V567.41C254.139 567.479 253.524 567.547 252.794 567.615C252.088 567.684 251.29 567.718 250.402 567.718ZM277.129 567.718C273.506 567.718 270.384 566.954 267.764 565.428C265.166 563.901 263.172 561.736 261.782 558.934C260.392 556.131 259.697 552.815 259.697 548.987V548.953C259.697 545.148 260.392 541.832 261.782 539.007C263.195 536.159 265.166 533.948 267.695 532.376C270.247 530.804 273.255 530.018 276.719 530.018C280.16 530.018 283.133 530.781 285.64 532.308C288.169 533.812 290.106 535.931 291.45 538.665C292.817 541.399 293.501 544.59 293.501 548.235V550.97H263.901V545.296H289.434L285.332 550.594V547.312C285.332 544.943 284.967 542.972 284.238 541.399C283.509 539.827 282.507 538.654 281.23 537.879C279.954 537.081 278.485 536.683 276.821 536.683C275.135 536.683 273.631 537.093 272.31 537.913C271.011 538.711 269.985 539.907 269.233 541.502C268.504 543.097 268.14 545.034 268.14 547.312V550.594C268.14 552.804 268.504 554.695 269.233 556.268C269.985 557.817 271.045 559.013 272.412 559.856C273.779 560.677 275.409 561.087 277.3 561.087C278.713 561.087 279.954 560.87 281.025 560.438C282.096 559.982 282.974 559.401 283.657 558.694C284.364 557.988 284.854 557.225 285.127 556.404L285.195 556.165H293.125L293.057 556.541C292.76 557.931 292.214 559.298 291.416 560.643C290.618 561.964 289.548 563.16 288.203 564.231C286.859 565.302 285.264 566.157 283.418 566.795C281.572 567.41 279.476 567.718 277.129 567.718ZM300.336 567V530.77H308.812V537.024H309.017C309.564 534.837 310.555 533.128 311.991 531.897C313.449 530.644 315.226 530.018 317.323 530.018C317.847 530.018 318.348 530.052 318.827 530.12C319.305 530.188 319.704 530.268 320.023 530.359V538.05C319.681 537.913 319.191 537.799 318.553 537.708C317.938 537.617 317.266 537.571 316.537 537.571C314.942 537.571 313.563 537.902 312.401 538.562C311.239 539.201 310.35 540.146 309.735 541.399C309.12 542.653 308.812 544.179 308.812 545.979V567H300.336Z" fill="white"/>
<path d="M120.055 654.508C117.195 654.508 114.562 654.079 112.156 653.219C109.766 652.375 107.68 651.125 105.898 649.469C104.133 647.813 102.758 645.774 101.773 643.352C100.805 640.915 100.32 638.125 100.32 634.985V634.961C100.32 632.055 100.789 629.407 101.727 627.016C102.664 624.625 103.992 622.563 105.711 620.829C107.445 619.094 109.492 617.758 111.852 616.821C114.227 615.868 116.836 615.391 119.68 615.391C123.305 615.391 126.531 616.118 129.359 617.571C132.188 619.024 134.414 621.094 136.039 623.782C137.664 626.454 138.477 629.625 138.477 633.297V633.321C138.477 635.915 138.133 638.086 137.445 639.836C136.773 641.586 135.852 642.907 134.68 643.797C133.508 644.688 132.195 645.133 130.742 645.133C129.273 645.133 128.055 644.727 127.086 643.915C126.133 643.086 125.461 642.086 125.07 640.915L125 640.704H124.789C124.242 642.125 123.391 643.188 122.234 643.891C121.094 644.579 119.773 644.922 118.273 644.922C116.648 644.922 115.219 644.508 113.984 643.68C112.766 642.852 111.812 641.696 111.125 640.211C110.453 638.727 110.117 636.993 110.117 635.008V634.985C110.117 633.063 110.461 631.375 111.148 629.922C111.852 628.469 112.812 627.336 114.031 626.524C115.266 625.696 116.68 625.282 118.273 625.282C119.523 625.282 120.672 625.586 121.719 626.196C122.766 626.79 123.508 627.586 123.945 628.586H124.133V625.727H127.672V637.141C127.672 638.75 127.961 639.954 128.539 640.75C129.117 641.547 129.867 641.946 130.789 641.946C131.617 641.946 132.336 641.625 132.945 640.985C133.57 640.344 134.055 639.391 134.398 638.125C134.758 636.844 134.938 635.25 134.938 633.344V633.321C134.938 630.29 134.281 627.672 132.969 625.469C131.672 623.266 129.852 621.571 127.508 620.383C125.18 619.18 122.469 618.579 119.375 618.579C117.125 618.579 115.055 618.977 113.164 619.774C111.273 620.571 109.633 621.704 108.242 623.172C106.852 624.625 105.773 626.36 105.008 628.375C104.242 630.375 103.859 632.579 103.859 634.985V635.008C103.859 638.508 104.57 641.477 105.992 643.915C107.414 646.336 109.344 648.172 111.781 649.422C114.234 650.672 117.008 651.297 120.102 651.297C121.148 651.297 122.18 651.25 123.195 651.157C124.211 651.063 125.133 650.93 125.961 650.758C126.805 650.586 127.477 650.391 127.977 650.172V653.36C126.945 653.719 125.742 654 124.367 654.204C123.008 654.407 121.57 654.508 120.055 654.508ZM118.812 641.618C120.422 641.618 121.703 641.024 122.656 639.836C123.609 638.649 124.086 637.055 124.086 635.055V635.032C124.086 633.032 123.609 631.446 122.656 630.274C121.703 629.102 120.438 628.516 118.859 628.516C117.812 628.516 116.914 628.774 116.164 629.29C115.43 629.805 114.859 630.547 114.453 631.516C114.062 632.485 113.867 633.649 113.867 635.008V635.032C113.867 636.407 114.062 637.586 114.453 638.571C114.859 639.54 115.43 640.29 116.164 640.821C116.914 641.352 117.797 641.618 118.812 641.618ZM151.812 649.469C149.734 649.469 147.914 648.954 146.352 647.922C144.805 646.875 143.602 645.407 142.742 643.516C141.883 641.61 141.453 639.375 141.453 636.813V636.79C141.453 634.227 141.883 632 142.742 630.11C143.617 628.219 144.828 626.758 146.375 625.727C147.922 624.68 149.711 624.157 151.742 624.157C152.898 624.157 153.969 624.344 154.953 624.719C155.953 625.079 156.844 625.602 157.625 626.29C158.406 626.961 159.047 627.766 159.547 628.704H159.641V615.18H163.719V649H159.641V644.875H159.547C159.047 645.829 158.414 646.649 157.648 647.336C156.883 648.008 156.008 648.532 155.023 648.907C154.055 649.282 152.984 649.469 151.812 649.469ZM152.609 645.86C153.984 645.86 155.203 645.485 156.266 644.735C157.328 643.985 158.156 642.93 158.75 641.571C159.359 640.211 159.664 638.625 159.664 636.813V636.79C159.664 634.977 159.359 633.399 158.75 632.055C158.141 630.696 157.305 629.641 156.242 628.891C155.195 628.141 153.984 627.766 152.609 627.766C151.172 627.766 149.93 628.133 148.883 628.868C147.836 629.602 147.031 630.641 146.469 631.985C145.906 633.329 145.625 634.93 145.625 636.79V636.813C145.625 638.672 145.906 640.282 146.469 641.641C147.031 643 147.836 644.047 148.883 644.782C149.93 645.5 151.172 645.86 152.609 645.86ZM179.328 649.469C177.078 649.469 175.102 648.954 173.398 647.922C171.711 646.891 170.391 645.43 169.438 643.54C168.5 641.633 168.031 639.391 168.031 636.813V636.766C168.031 634.172 168.5 631.938 169.438 630.063C170.391 628.172 171.711 626.719 173.398 625.704C175.102 624.672 177.07 624.157 179.305 624.157C181.555 624.157 183.523 624.672 185.211 625.704C186.914 626.719 188.234 628.172 189.172 630.063C190.125 631.938 190.602 634.172 190.602 636.766V636.813C190.602 639.407 190.125 641.649 189.172 643.54C188.234 645.43 186.922 646.891 185.234 647.922C183.547 648.954 181.578 649.469 179.328 649.469ZM179.352 645.86C180.789 645.86 182.031 645.508 183.078 644.805C184.141 644.086 184.961 643.055 185.539 641.711C186.133 640.352 186.43 638.719 186.43 636.813V636.766C186.43 634.86 186.133 633.235 185.539 631.891C184.961 630.547 184.133 629.524 183.055 628.821C181.992 628.118 180.742 627.766 179.305 627.766C177.898 627.766 176.656 628.125 175.578 628.844C174.516 629.547 173.688 630.571 173.094 631.915C172.5 633.243 172.203 634.86 172.203 636.766V636.813C172.203 638.719 172.5 640.352 173.094 641.711C173.688 643.055 174.516 644.086 175.578 644.805C176.656 645.508 177.914 645.86 179.352 645.86ZM201.852 649.469C200.242 649.469 198.828 649.165 197.609 648.555C196.391 647.946 195.438 647.086 194.75 645.977C194.078 644.868 193.742 643.579 193.742 642.11V642.063C193.742 640.672 194.086 639.469 194.773 638.454C195.477 637.438 196.484 636.633 197.797 636.04C199.125 635.446 200.719 635.094 202.578 634.985L211.602 634.469V637.633L203.047 638.149C201.422 638.243 200.156 638.633 199.25 639.321C198.359 640.008 197.914 640.922 197.914 642.063V642.11C197.914 643.282 198.352 644.211 199.227 644.899C200.117 645.586 201.297 645.93 202.766 645.93C204.047 645.93 205.195 645.665 206.211 645.133C207.242 644.586 208.055 643.844 208.648 642.907C209.258 641.969 209.562 640.915 209.562 639.743V632.547C209.562 631.063 209.094 629.899 208.156 629.055C207.234 628.196 205.922 627.766 204.219 627.766C202.656 627.766 201.391 628.11 200.422 628.797C199.469 629.469 198.875 630.352 198.641 631.446L198.594 631.657H194.656L194.68 631.399C194.805 630.055 195.258 628.836 196.039 627.743C196.836 626.649 197.93 625.782 199.32 625.141C200.711 624.485 202.359 624.157 204.266 624.157C206.188 624.157 207.844 624.485 209.234 625.141C210.641 625.797 211.727 626.727 212.492 627.93C213.258 629.118 213.641 630.524 213.641 632.149V649H209.562V645.04H209.469C209 645.93 208.375 646.711 207.594 647.383C206.812 648.04 205.93 648.555 204.945 648.93C203.977 649.29 202.945 649.469 201.852 649.469ZM218.82 649V624.625H222.898V628.094H222.992C223.648 626.954 224.602 626.016 225.852 625.282C227.102 624.532 228.648 624.157 230.492 624.157C233.164 624.157 235.234 624.969 236.703 626.594C238.188 628.204 238.93 630.399 238.93 633.18V649H234.852V633.907C234.852 631.922 234.383 630.407 233.445 629.36C232.523 628.297 231.125 627.766 229.25 627.766C227.969 627.766 226.852 628.055 225.898 628.633C224.945 629.196 224.203 629.993 223.672 631.024C223.156 632.055 222.898 633.266 222.898 634.657V649H218.82ZM244.344 649V615.18H248.422V628.516H248.516C249.172 627.141 250.148 626.071 251.445 625.305C252.742 624.54 254.297 624.157 256.109 624.157C257.844 624.157 259.359 624.579 260.656 625.422C261.969 626.25 262.992 627.407 263.727 628.891C264.461 630.375 264.828 632.102 264.828 634.071V649H260.75V634.774C260.75 632.571 260.219 630.852 259.156 629.618C258.094 628.383 256.609 627.766 254.703 627.766C253.453 627.766 252.352 628.063 251.398 628.657C250.461 629.25 249.727 630.071 249.195 631.118C248.68 632.165 248.422 633.383 248.422 634.774V649H244.344ZM278.328 649.469C276.547 649.469 275.023 649.102 273.758 648.368C272.508 647.633 271.547 646.594 270.875 645.25C270.219 643.891 269.891 642.29 269.891 640.446V624.625H273.969V639.719C273.969 641.704 274.43 643.227 275.352 644.29C276.289 645.336 277.695 645.86 279.57 645.86C280.539 645.86 281.406 645.696 282.172 645.368C282.953 645.04 283.625 644.579 284.188 643.985C284.75 643.375 285.18 642.649 285.477 641.805C285.773 640.946 285.922 640 285.922 638.969V624.625H290V649H285.922V645.532H285.828C285.391 646.282 284.82 646.954 284.117 647.547C283.43 648.141 282.602 648.61 281.633 648.954C280.664 649.297 279.562 649.469 278.328 649.469ZM303.641 649.469C301.859 649.469 300.336 649.102 299.07 648.368C297.82 647.633 296.859 646.594 296.188 645.25C295.531 643.891 295.203 642.29 295.203 640.446V624.625H299.281V639.719C299.281 641.704 299.742 643.227 300.664 644.29C301.602 645.336 303.008 645.86 304.883 645.86C305.852 645.86 306.719 645.696 307.484 645.368C308.266 645.04 308.938 644.579 309.5 643.985C310.062 643.375 310.492 642.649 310.789 641.805C311.086 640.946 311.234 640 311.234 638.969V624.625H315.312V649H311.234V645.532H311.141C310.703 646.282 310.133 646.954 309.43 647.547C308.742 648.141 307.914 648.61 306.945 648.954C305.977 649.297 304.875 649.469 303.641 649.469ZM337.625 657.204V645.04H337.531C337.047 645.93 336.422 646.704 335.656 647.36C334.891 648.016 334.008 648.524 333.008 648.883C332.023 649.243 330.945 649.422 329.773 649.422C327.727 649.422 325.922 648.907 324.359 647.875C322.812 646.829 321.602 645.36 320.727 643.469C319.867 641.563 319.438 639.336 319.438 636.79V636.766C319.438 634.219 319.875 632.008 320.75 630.133C321.641 628.258 322.867 626.805 324.43 625.774C325.992 624.727 327.805 624.204 329.867 624.204C331.023 624.204 332.086 624.399 333.055 624.79C334.023 625.165 334.883 625.696 335.633 626.383C336.398 627.055 337.031 627.844 337.531 628.75H337.625V624.625H341.703V657.204H337.625ZM330.664 645.813C332.055 645.813 333.266 645.446 334.297 644.711C335.344 643.961 336.156 642.907 336.734 641.547C337.328 640.188 337.625 638.602 337.625 636.79V636.766C337.625 634.954 337.328 633.383 336.734 632.055C336.156 630.711 335.344 629.672 334.297 628.938C333.25 628.188 332.039 627.813 330.664 627.813C329.227 627.813 327.977 628.18 326.914 628.915C325.852 629.649 325.031 630.688 324.453 632.032C323.891 633.36 323.609 634.938 323.609 636.766V636.79C323.609 638.649 323.891 640.258 324.453 641.618C325.031 642.961 325.852 644 326.914 644.735C327.977 645.454 329.227 645.813 330.664 645.813ZM355.297 649.469C353.516 649.469 351.992 649.102 350.727 648.368C349.477 647.633 348.516 646.594 347.844 645.25C347.188 643.891 346.859 642.29 346.859 640.446V624.625H350.938V639.719C350.938 641.704 351.398 643.227 352.32 644.29C353.258 645.336 354.664 645.86 356.539 645.86C357.508 645.86 358.375 645.696 359.141 645.368C359.922 645.04 360.594 644.579 361.156 643.985C361.719 643.375 362.148 642.649 362.445 641.805C362.742 640.946 362.891 640 362.891 638.969V624.625H366.969V649H362.891V645.532H362.797C362.359 646.282 361.789 646.954 361.086 647.547C360.398 648.141 359.57 648.61 358.602 648.954C357.633 649.297 356.531 649.469 355.297 649.469ZM379.414 649.469C377.805 649.469 376.391 649.165 375.172 648.555C373.953 647.946 373 647.086 372.312 645.977C371.641 644.868 371.305 643.579 371.305 642.11V642.063C371.305 640.672 371.648 639.469 372.336 638.454C373.039 637.438 374.047 636.633 375.359 636.04C376.688 635.446 378.281 635.094 380.141 634.985L389.164 634.469V637.633L380.609 638.149C378.984 638.243 377.719 638.633 376.812 639.321C375.922 640.008 375.477 640.922 375.477 642.063V642.11C375.477 643.282 375.914 644.211 376.789 644.899C377.68 645.586 378.859 645.93 380.328 645.93C381.609 645.93 382.758 645.665 383.773 645.133C384.805 644.586 385.617 643.844 386.211 642.907C386.82 641.969 387.125 640.915 387.125 639.743V632.547C387.125 631.063 386.656 629.899 385.719 629.055C384.797 628.196 383.484 627.766 381.781 627.766C380.219 627.766 378.953 628.11 377.984 628.797C377.031 629.469 376.438 630.352 376.203 631.446L376.156 631.657H372.219L372.242 631.399C372.367 630.055 372.82 628.836 373.602 627.743C374.398 626.649 375.492 625.782 376.883 625.141C378.273 624.485 379.922 624.157 381.828 624.157C383.75 624.157 385.406 624.485 386.797 625.141C388.203 625.797 389.289 626.727 390.055 627.93C390.82 629.118 391.203 630.524 391.203 632.149V649H387.125V645.04H387.031C386.562 645.93 385.938 646.711 385.156 647.383C384.375 648.04 383.492 648.555 382.508 648.93C381.539 649.29 380.508 649.469 379.414 649.469ZM396.383 649V624.625H400.461V628.094H400.555C401.211 626.954 402.164 626.016 403.414 625.282C404.664 624.532 406.211 624.157 408.055 624.157C410.727 624.157 412.797 624.969 414.266 626.594C415.75 628.204 416.492 630.399 416.492 633.18V649H412.414V633.907C412.414 631.922 411.945 630.407 411.008 629.36C410.086 628.297 408.688 627.766 406.812 627.766C405.531 627.766 404.414 628.055 403.461 628.633C402.508 629.196 401.766 629.993 401.234 631.024C400.719 632.055 400.461 633.266 400.461 634.657V649H396.383ZM432.008 657.672C430.008 657.672 428.258 657.383 426.758 656.805C425.273 656.243 424.07 655.469 423.148 654.485C422.242 653.516 421.656 652.43 421.391 651.227L421.344 651.016H425.445L425.539 651.227C425.93 652.102 426.68 652.79 427.789 653.29C428.914 653.805 430.305 654.063 431.961 654.063C434.102 654.063 435.758 653.508 436.93 652.399C438.102 651.305 438.688 649.813 438.688 647.922V644.805H438.594C438.109 645.711 437.484 646.493 436.719 647.149C435.953 647.805 435.07 648.321 434.07 648.696C433.086 649.055 432.008 649.235 430.836 649.235C428.789 649.235 426.984 648.719 425.422 647.688C423.875 646.641 422.664 645.18 421.789 643.305C420.93 641.415 420.5 639.204 420.5 636.672V636.649C420.5 634.118 420.938 631.922 421.812 630.063C422.703 628.188 423.93 626.735 425.492 625.704C427.055 624.672 428.867 624.157 430.93 624.157C432.086 624.157 433.148 624.352 434.117 624.743C435.086 625.133 435.945 625.672 436.695 626.36C437.461 627.047 438.094 627.844 438.594 628.75H438.688V624.625H442.766V648.321C442.766 650.211 442.328 651.852 441.453 653.243C440.578 654.649 439.336 655.735 437.727 656.5C436.117 657.282 434.211 657.672 432.008 657.672ZM431.727 645.625C433.117 645.625 434.328 645.258 435.359 644.524C436.406 643.774 437.219 642.727 437.797 641.383C438.391 640.04 438.688 638.469 438.688 636.672V636.649C438.688 634.852 438.391 633.29 437.797 631.961C437.219 630.633 436.406 629.602 435.359 628.868C434.312 628.133 433.102 627.766 431.727 627.766C430.289 627.766 429.039 628.133 427.977 628.868C426.914 629.586 426.094 630.61 425.516 631.938C424.953 633.266 424.672 634.836 424.672 636.649V636.672C424.672 638.516 424.953 640.11 425.516 641.454C426.094 642.782 426.914 643.813 427.977 644.547C429.039 645.266 430.289 645.625 431.727 645.625Z" fill="white"/>
<g filter="url(#filter0_ddi_1_96)">
<path d="M204.265 96.157H224.867L179.867 147.798L233 217.824H191.253L158.723 175.375L121.313 217.824H100.711L148.964 162.668L98 96.157H140.831L170.38 135.09L204.265 96.157ZM196.946 205.387H208.331L134.596 107.783H122.127L196.946 205.387Z" fill="white"/>
</g>
</g>
<rect x="0.5" y="0.5" width="749" height="749" rx="53.35" stroke="black" stroke-opacity="0.08"/>
<defs>
<filter id="filter0_ddi_1_96" x="65.3283" y="79.3772" width="294.452" height="282.983" filterUnits="userSpaceOnUse" color-interpolation-filters="sRGB">
<feFlood flood-opacity="0" result="BackgroundImageFix"/>
<feColorMatrix in="SourceAlpha" type="matrix" values="0 0 0 0 0 0 0 0 0 0 0 0 0 0 0 0 0 0 127 0" result="hardAlpha"/>
<feOffset dx="47.0544" dy="64.8108"/>
<feGaussianBlur stdDeviation="39.8631"/>
<feComposite in2="hardAlpha" operator="out"/>
<feColorMatrix type="matrix" values="0 0 0 0 0 0 0 0 0 0 0 0 0 0 0 0 0 0 0.53 0"/>
<feBlend mode="normal" in2="BackgroundImageFix" result="effect1_dropShadow_1_96"/>
<feColorMatrix in="SourceAlpha" type="matrix" values="0 0 0 0 0 0 0 0 0 0 0 0 0 0 0 0 0 0 127 0" result="hardAlpha"/>
<feOffset dx="16.8686" dy="19.532"/>
<feGaussianBlur stdDeviation="18.1559"/>
<feComposite in2="hardAlpha" operator="out"/>
<feColorMatrix type="matrix" values="0 0 0 0 0 0 0 0 0 0 0 0 0 0 0 0 0 0 0.62 0"/>
<feBlend mode="normal" in2="effect1_dropShadow_1_96" result="effect2_dropShadow_1_96"/>
<feBlend mode="normal" in="SourceGraphic" in2="effect2_dropShadow_1_96" result="shape"/>
<feColorMatrix in="SourceAlpha" type="matrix" values="0 0 0 0 0 0 0 0 0 0 0 0 0 0 0 0 0 0 127 0" result="hardAlpha"/>
<feOffset dx="-1.77564" dy="-3.55128"/>
<feGaussianBlur stdDeviation="1.77564"/>
<feComposite in2="hardAlpha" operator="arithmetic" k2="-1" k3="1"/>
<feColorMatrix type="matrix" values="0 0 0 0 0.253711 0 0 0 0 0.253711 0 0 0 0 0.253711 0 0 0 0.45 0"/>
<feBlend mode="normal" in2="shape" result="effect3_innerShadow_1_96"/>
</filter>
<linearGradient id="paint0_linear_1_96" x1="108" y1="-4.0669e-07" x2="108" y2="750" gradientUnits="userSpaceOnUse">
<stop stop-color="#302F34"/>
<stop offset="0.953345" stop-color="#1A191C"/>
</linearGradient>
<clipPath id="clip0_1_96">
<rect width="750" height="750" rx="53.85" fill="white"/>
</clipPath>
</defs>
</svg>
